<svg id="Row_3" data-name="Row 3" xmlns="http://www.w3.org/2000/svg" width="256" height="256" viewBox="0 0 256 256">
  <defs>
    <style>
      .cls-1 {
        fill: #eee;
      }

      .cls-2 {
        fill: #ffc107;
      }

      .cls-3 {
        fill: #795548;
      }

      .cls-4 {
        fill: #673ab7;
      }

      .cls-5 {
        fill: #009688;
      }

      .cls-6 {
        fill: #8bc34a;
      }

      .cls-7 {
        fill: #9c27b0;
      }

      .cls-8 {
        fill: #03a9f4;
      }

      .cls-9 {
        fill: #00bcd4;
      }

      .cls-10 {
        fill: #2196f3;
      }
    </style>
  </defs>
  <circle id="Border" cx="128" cy="128" r="128"/>
  <circle id="Outer_Circle" data-name="Outer Circle" class="cls-1" cx="128" cy="128" r="124"/>
  <circle id="Inner_Circle" data-name="Inner Circle" cx="128" cy="128" r="120"/>
  <rect class="cls-2" x="161" y="151" width="56" height="36" rx="2" ry="2"/>
  <rect class="cls-3" x="100" y="151" width="56" height="36" rx="2" ry="2"/>
  <rect class="cls-4" x="39" y="151" width="56" height="36" rx="2" ry="2"/>
  <rect class="cls-5" x="161" y="110" width="56" height="36" rx="2" ry="2"/>
  <rect class="cls-6" x="100" y="110" width="56" height="36" rx="2" ry="2"/>
  <rect class="cls-7" x="39" y="110" width="56" height="36" rx="2" ry="2"/>
  <rect class="cls-8" x="161" y="69" width="56" height="36" rx="2" ry="2"/>
  <rect class="cls-9" x="100" y="69" width="56" height="36" rx="2" ry="2"/>
  <rect class="cls-10" x="39" y="69" width="56" height="36" rx="2" ry="2"/>
</svg>
