<svg id="Row_3" data-name="Row 3" xmlns="http://www.w3.org/2000/svg" width="32" height="32" viewBox="0 0 32 32">
  <defs>
    <style>
      .cls-1 {
        fill: #eee;
      }

      .cls-2 {
        fill: #ffc107;
      }

      .cls-3 {
        fill: #795548;
      }

      .cls-4 {
        fill: #673ab7;
      }

      .cls-5 {
        fill: #009688;
      }

      .cls-6 {
        fill: #8bc34a;
      }

      .cls-7 {
        fill: #9c27b0;
      }

      .cls-8 {
        fill: #03a9f4;
      }

      .cls-9 {
        fill: #00bcd4;
      }

      .cls-10 {
        fill: #2196f3;
      }
    </style>
  </defs>
  <circle id="Border" cx="16" cy="16" r="16"/>
  <circle id="Outer_Circle" data-name="Outer Circle" class="cls-1" cx="16" cy="16" r="14"/>
  <circle id="Inner_Circle" data-name="Inner Circle" cx="16" cy="16" r="13"/>
  <rect class="cls-2" x="20" y="19" width="6" height="4" rx="1" ry="1"/>
  <rect class="cls-3" x="13" y="19" width="6" height="4" rx="1" ry="1"/>
  <rect class="cls-4" x="6" y="19" width="6" height="4" rx="1" ry="1"/>
  <rect class="cls-5" x="20" y="14" width="6" height="4" rx="1" ry="1"/>
  <rect class="cls-6" x="13" y="14" width="6" height="4" rx="1" ry="1"/>
  <rect class="cls-7" x="6" y="14" width="6" height="4" rx="1" ry="1"/>
  <rect class="cls-8" x="20" y="9" width="6" height="4" rx="1" ry="1"/>
  <rect class="cls-9" x="13" y="9" width="6" height="4" rx="1" ry="1"/>
  <rect class="cls-10" x="6" y="9" width="6" height="4" rx="1" ry="1"/>
</svg>
