<svg id="Row_3" data-name="Row 3" xmlns="http://www.w3.org/2000/svg" width="48" height="48" viewBox="0 0 48 48">
  <defs>
    <style>
      .cls-1 {
        fill: #eee;
      }

      .cls-2 {
        fill: #ffc107;
      }

      .cls-3 {
        fill: #795548;
      }

      .cls-4 {
        fill: #673ab7;
      }

      .cls-5 {
        fill: #009688;
      }

      .cls-6 {
        fill: #8bc34a;
      }

      .cls-7 {
        fill: #9c27b0;
      }

      .cls-8 {
        fill: #03a9f4;
      }

      .cls-9 {
        fill: #00bcd4;
      }

      .cls-10 {
        fill: #2196f3;
      }
    </style>
  </defs>
  <circle id="Border" cx="24" cy="24" r="24"/>
  <circle id="Outer_Circle" data-name="Outer Circle" class="cls-1" cx="24" cy="24" r="22"/>
  <circle id="Inner_Circle" data-name="Inner Circle" cx="24" cy="24" r="20"/>
  <rect class="cls-2" x="30" y="28" width="10" height="6" rx="1" ry="1"/>
  <rect class="cls-3" x="19" y="28" width="10" height="6" rx="1" ry="1"/>
  <rect class="cls-4" x="8" y="28" width="10" height="6" rx="1" ry="1"/>
  <rect class="cls-5" x="30" y="21" width="10" height="6" rx="1" ry="1"/>
  <rect class="cls-6" x="19" y="21" width="10" height="6" rx="1" ry="1"/>
  <rect class="cls-7" x="8" y="21" width="10" height="6" rx="1" ry="1"/>
  <rect class="cls-8" x="30" y="14" width="10" height="6" rx="1" ry="1"/>
  <rect class="cls-9" x="19" y="14" width="10" height="6" rx="1" ry="1"/>
  <rect class="cls-10" x="8" y="14" width="10" height="6" rx="1" ry="1"/>
</svg>
