<svg id="Row_3" data-name="Row 3" xmlns="http://www.w3.org/2000/svg" width="512" height="512" viewBox="0 0 512 512">
  <defs>
    <style>
      .cls-1 {
        fill: #eee;
      }

      .cls-2 {
        fill: #ffc107;
      }

      .cls-3 {
        fill: #795548;
      }

      .cls-4 {
        fill: #673ab7;
      }

      .cls-10, .cls-4 {
        fill-rule: evenodd;
      }

      .cls-5 {
        fill: #009688;
      }

      .cls-6 {
        fill: #8bc34a;
      }

      .cls-7 {
        fill: #9c27b0;
      }

      .cls-8 {
        fill: #03a9f4;
      }

      .cls-9 {
        fill: #00bcd4;
      }

      .cls-10 {
        fill: #2196f3;
      }
    </style>
  </defs>
  <circle id="Border" cx="256" cy="256" r="256"/>
  <circle id="Outer_Circle" data-name="Outer Circle" class="cls-1" cx="256" cy="256" r="248"/>
  <circle id="Inner_Circle" data-name="Inner Circle" cx="256" cy="256" r="240"/>
  <rect class="cls-2" x="323" y="304" width="110" height="72" rx="3" ry="3"/>
  <rect class="cls-3" x="201" y="304" width="110" height="72" rx="3" ry="3"/>
  <path class="cls-4" d="M82.007,304h104a3,3,0,0,1,3,3v66a3,3,0,0,1-3,3h-104a3,3,0,0,1-3-3V307A3,3,0,0,1,82.007,304Z"/>
  <rect class="cls-5" x="323" y="220" width="110" height="72" rx="3" ry="3"/>
  <rect class="cls-6" x="201" y="220" width="110" height="72" rx="3" ry="3"/>
  <rect class="cls-7" x="79" y="220" width="110" height="72" rx="3" ry="3"/>
  <rect class="cls-8" x="323" y="136" width="110" height="72" rx="3" ry="3"/>
  <rect class="cls-9" x="201" y="136" width="110" height="72" rx="3" ry="3"/>
  <path class="cls-10" d="M82.007,136h104a3,3,0,0,1,3,3v66a3,3,0,0,1-3,3h-104a3,3,0,0,1-3-3V139A3,3,0,0,1,82.007,136Z"/>
</svg>
