<svg id="Row_3" data-name="Row 3" xmlns="http://www.w3.org/2000/svg" width="64" height="64" viewBox="0 0 64 64">
  <defs>
    <style>
      .cls-1 {
        fill: #eee;
      }

      .cls-2 {
        fill: #ffc107;
      }

      .cls-3 {
        fill: #795548;
      }

      .cls-4 {
        fill: #673ab7;
      }

      .cls-5 {
        fill: #009688;
      }

      .cls-6 {
        fill: #8bc34a;
      }

      .cls-7 {
        fill: #9c27b0;
      }

      .cls-8 {
        fill: #2196f3;
      }

      .cls-9 {
        fill: #00bcd4;
      }

      .cls-10 {
        fill: #3f51b5;
      }
    </style>
  </defs>
  <circle id="Border" cx="32" cy="32" r="32"/>
  <circle id="Outer_Circle" data-name="Outer Circle" class="cls-1" cx="32" cy="32" r="30"/>
  <circle id="Inner_Circle" data-name="Inner Circle" cx="32" cy="32" r="28"/>
  <rect class="cls-2" x="40" y="38" width="12" height="8" rx="1" ry="1"/>
  <rect class="cls-3" x="26" y="38" width="12" height="8" rx="1" ry="1"/>
  <rect class="cls-4" x="12" y="38" width="12" height="8" rx="1" ry="1"/>
  <rect class="cls-5" x="40" y="28" width="12" height="8" rx="1" ry="1"/>
  <rect class="cls-6" x="26" y="28" width="12" height="8" rx="1" ry="1"/>
  <rect class="cls-7" x="12" y="28" width="12" height="8" rx="1" ry="1"/>
  <rect class="cls-8" x="40" y="18" width="12" height="8" rx="1" ry="1"/>
  <rect class="cls-9" x="26" y="18" width="12" height="8" rx="1" ry="1"/>
  <rect class="cls-10" x="12" y="18" width="12" height="8" rx="1" ry="1"/>
</svg>
