<svg id="Row_3" data-name="Row 3" xmlns="http://www.w3.org/2000/svg" width="96" height="96" viewBox="0 0 96 96">
  <defs>
    <style>
      .cls-1 {
        fill: #eee;
      }

      .cls-2 {
        fill: #ffc107;
      }

      .cls-3 {
        fill: #795548;
      }

      .cls-4 {
        fill: #673ab7;
      }

      .cls-5 {
        fill: #009688;
      }

      .cls-6 {
        fill: #8bc34a;
      }

      .cls-7 {
        fill: #9c27b0;
      }

      .cls-8 {
        fill: #03a9f4;
      }

      .cls-9 {
        fill: #00bcd4;
      }

      .cls-10 {
        fill: #2196f3;
      }
    </style>
  </defs>
  <circle id="Border" cx="48" cy="48" r="48"/>
  <circle id="Outer_Circle" data-name="Outer Circle" class="cls-1" cx="48" cy="48" r="46"/>
  <circle id="Inner_Circle" data-name="Inner Circle" cx="48" cy="48" r="44"/>
  <rect class="cls-2" x="61" y="58" width="20" height="14" rx="1" ry="1"/>
  <rect class="cls-3" x="38" y="58" width="20" height="14" rx="1" ry="1"/>
  <rect class="cls-4" x="15" y="58" width="20" height="14" rx="1" ry="1"/>
  <rect class="cls-5" x="61" y="41" width="20" height="14" rx="1" ry="1"/>
  <rect class="cls-6" x="38" y="41" width="20" height="14" rx="1" ry="1"/>
  <rect class="cls-7" x="15" y="41" width="20" height="14" rx="1" ry="1"/>
  <rect class="cls-8" x="61" y="24" width="20" height="14" rx="1" ry="1"/>
  <rect class="cls-9" x="38" y="24" width="20" height="14" rx="1" ry="1"/>
  <rect class="cls-10" x="15" y="24" width="20" height="14" rx="1" ry="1"/>
</svg>
