<svg xmlns="http://www.w3.org/2000/svg" height="1200" width="1200" viewBox="-150 -146.12125 1300 876.7275"><path d="M0 7.241v252.321h132.111c51.999 0 100.051-18.25 100.051-71.858 0-36.24-26.108-52.784-54.823-61.443 17.495-7.018 37.342-21.761 37.342-52.666 0-39.557-39.248-66.354-92.091-66.354zm80.933 58.766h29.755c12.113 0 21.349 9.488 21.349 19.118 0 8.946-9.597 18.522-21.35 18.522H80.934zm0 90.008h39.276c13.712 0 25.218 10.414 25.218 22.317 0 12.639-10.761 23.134-27.598 23.134H80.933zM65.46 287.085v252.32h132.112c51.998 0 100.05-18.25 100.05-71.857 0-36.241-26.107-52.784-54.823-61.444 17.496-7.018 37.343-21.76 37.343-52.666 0-39.556-39.249-66.353-92.092-66.353zm80.934 58.765h29.755c12.112 0 21.349 9.488 21.349 19.118 0 8.947-9.598 18.522-21.35 18.522h-29.754zm0 90.009h39.276c13.711 0 25.217 10.413 25.217 22.316 0 12.64-10.76 23.134-27.597 23.134h-36.896zm92.121-176.327V7.21h203.523v60.938H319.21v33.087h99.738v57.13H319.21v40.466h122.828v60.7zm313.773 7.222c57.288 0 103.11-32.677 103.11-85.632 0-85.461-111.177-72.31-111.177-98.919 0-10.278 10.81-15.732 21.895-15.732 19.104 0 32.907 12.586 32.907 12.586l47.831-45.544C627.724 15.307 597.51 0 556.807 0 495.68 0 455.69 36.28 455.69 80.045c0 86.548 109.575 73.987 109.575 101.143 0 9.52-9.159 19.096-25.77 19.096-18.858 0-33.798-11.385-45.425-21.044l-48.111 45.868c19.373 18.87 50.475 41.646 106.33 41.646zm165.398-7.222V67.91h-66.65V7.21H865.27v60.7h-66.65v191.62zm-417.281 27.374H381.1v151.155c0 15.349 15.276 29.493 31.203 29.493 15.024 0 30.21-12.773 30.21-30.3V286.905h80.458v149.32c0 59.25-49.193 106.513-112.8 106.513-63.97 0-109.766-51.437-109.766-109.742zM622.47 539.227v-90.162l-94.844-162.159h81.645l53.666 86.884 53.852-86.884h81.83l-95.215 163.086v89.235z" fill="#fff"/><path d="M798.62 424.999l-47.608 47.608v64.27l47.607 47.608H1000V424.999z" fill="#ffed31"/><path d="M790.8 504.711c0 5.916-4.796 10.712-10.712 10.712-5.915 0-10.711-4.796-10.711-10.712 0-5.916 4.796-10.711 10.711-10.711 5.916 0 10.712 4.795 10.712 10.711z" fill="#1d252c"/></svg>