<?xml version="1.0" encoding="utf-8"?>
<svg version="1.0"
	 id="svg3486" inkscape:version="0.92.2 (5c3e80d, 2017-08-06)" sodipodi:docname="Expedia logo 2023.svg" xmlns:cc="http://creativecommons.org/ns#" xmlns:dc="http://purl.org/dc/elements/1.1/" xmlns:inkscape="http://www.inkscape.org/namespaces/inkscape" xmlns:rdf="http://www.w3.org/1999/02/22-rdf-syntax-ns#" xmlns:sodipodi="http://sodipodi.sourceforge.net/DTD/sodipodi-0.dtd" xmlns:svg="http://www.w3.org/2000/svg"
	 xmlns="http://www.w3.org/2000/svg" xmlns:xlink="http://www.w3.org/1999/xlink" x="0px" y="0px" viewBox="0 -164.735 1224 1224"
	 style="enable-background:new 0 -164.735 1224 1224;" xml:space="preserve">
<style type="text/css">
	.st0{fill:#191E3B;}
	.st1{fill:#FDDB32;}
</style>
<sodipodi:namedview  bordercolor="#666666" borderopacity="1.0" fit-margin-bottom="0" fit-margin-left="0" fit-margin-right="0" fit-margin-top="0" id="base" inkscape:current-layer="g3744" inkscape:cx="470.94675" inkscape:cy="28.774083" inkscape:document-units="mm" inkscape:guide-bbox="true" inkscape:pageopacity="0.0" inkscape:pageshadow="2" inkscape:snap-smooth-nodes="true" inkscape:window-height="705" inkscape:window-maximized="1" inkscape:window-width="1366" inkscape:window-x="-8" inkscape:window-y="-8" inkscape:zoom="0.70710678" pagecolor="#ffffff" showgrid="false" showguides="false" units="px">
	<sodipodi:guide  id="guide3499" inkscape:locked="false" orientation="0,1" position="149.74285,109.70703"></sodipodi:guide>
	<sodipodi:guide  id="guide3517" inkscape:locked="false" orientation="0,1" position="301.72942,3.2901383"></sodipodi:guide>
	<sodipodi:guide  id="guide3528" inkscape:locked="false" orientation="1,0" position="282.05295,94.752445"></sodipodi:guide>
	<sodipodi:guide  id="guide3542" inkscape:locked="false" orientation="1,0" position="268.87824,81.543505"></sodipodi:guide>
	<sodipodi:guide  id="guide3613" inkscape:locked="false" orientation="2.6769023e-008,1" position="301.72941,83.642861">
		</sodipodi:guide>
	<sodipodi:guide  id="guide3620" inkscape:locked="false" orientation="0,1" position="434.25126,66.977316"></sodipodi:guide>
	<sodipodi:guide  id="guide3649" inkscape:locked="false" orientation="-0.70710678,0.70710678" position="-41.020771,85.485731">
		</sodipodi:guide>
	<sodipodi:guide  id="guide3658" inkscape:locked="false" orientation="0,1" position="-39.417671,17.219858"></sodipodi:guide>
</sodipodi:namedview>
<g id="layer1" transform="translate(211.74938,-377.82863)" inkscape:groupmode="layer" inkscape:label="Layer 1">
	<g id="g3760" transform="matrix(0.37858848,0,0,0.37858848,-108.06807,260.21727)">
		<g id="g3734">
			<path id="rect3505" inkscape:connector-curvature="0" sodipodi:nodetypes="ssssssssccssssccsssss" class="st0" d="
				M679.43,1266.77c-15.35,0-27.7,12.35-27.7,27.7v338.12c0,15.35,12.36,27.7,27.7,27.7h212.6c4.02,0,7.25-3.23,7.25-7.25v-38.79
				c0-4.02-3.23-7.25-7.25-7.25H711.24v-123.65H873.8c4.02,0,7.25-3.23,7.25-7.25v-36.65c0-4.02-3.23-7.25-7.25-7.25H711.24v-113.4
				h180.78c4.02,0,7.25-3.23,7.25-7.25v-37.54c0-4.02-3.23-7.25-7.25-7.25H679.43z"/>
			<path id="rect3515" inkscape:connector-curvature="0" sodipodi:nodetypes="scsssssssscssszczcz" class="st0" d="M1397.13,1365.28
				c-50.59,0-82,17.42-103.03,46.39v-30.26c0-4.02-3.23-7.25-7.25-7.25h-43.78c-4.02,0-7.25,3.23-7.25,7.25v369.13
				c0,4.02,3.23,7.25,7.25,7.25h44.53c4.02,0,7.25-3.23,7.25-7.25v-126.28c19.51,28.09,51.13,44.72,102.27,44.72
				c86.01,0,139.56-68.07,139.56-151.94S1484.24,1365.28,1397.13,1365.28L1397.13,1365.28z M1384.64,1414.11
				c61.88,0,92.32,46.08,92.32,102.93c0,56.84-30.44,102.93-92.32,102.93c-61.88,0-92.32-46.08-92.32-102.93
				C1292.32,1460.2,1322.76,1414.11,1384.64,1414.11z"/>
			<path id="rect3532" inkscape:connector-curvature="0" class="st0" d="M2260.93,1374.16h44.03c4.02,0,7.25,3.23,7.25,7.25v271.63
				c0,4.02-3.23,7.25-7.25,7.25h-44.03c-4.02,0-7.25-3.23-7.25-7.25v-271.63C2253.68,1377.39,2256.91,1374.16,2260.93,1374.16
				L2260.93,1374.16z"/>
			<path id="rect3534" inkscape:connector-curvature="0" class="st0" d="M2260.3,1266.63h45.29c4.02,0,7.25,3.23,7.25,7.25v45.29
				c0,4.02-3.23,7.25-7.25,7.25h-45.29c-4.02,0-7.25-3.23-7.25-7.25v-45.29C2253.05,1269.86,2256.28,1266.63,2260.3,1266.63z"/>
			<path id="path3546" inkscape:connector-curvature="0" sodipodi:nodetypes="scsssssssscssszczcz" class="st0" d="M2029.32,1668.98
				c50.59,0,82-17.42,103.03-46.39v30.44c0,4.02,3.23,7.25,7.25,7.25h43.78c4.01,0,7.25-3.23,7.25-7.25v-379.01
				c0-4.02-3.23-7.25-7.25-7.25h-44.53c-4.02,0-7.25,3.23-7.25,7.25v137.59c-20.94-27.38-51.13-46.33-102.27-46.33
				c-86.01,0-139.56,68.07-139.56,151.94S1942.2,1668.98,2029.32,1668.98L2029.32,1668.98z M2041.81,1620.15
				c-61.88,0-92.32-46.08-92.32-102.93c0-56.84,30.44-102.93,92.32-102.93s92.32,46.08,92.32,102.93
				C2134.13,1574.06,2103.68,1620.15,2041.81,1620.15z"/>
			<path id="path3557" inkscape:connector-curvature="0" class="st0" d="M2502.07,1365.46c-87.11,0-139.56,67.9-139.56,151.76
				s52.45,151.76,139.56,151.76c50.59,0,82-17.42,103.03-46.39v30.44c0,4.02,3.23,7.25,7.25,7.25h43.78c4.02,0,7.25-3.23,7.25-7.25
				v-135.81v-135.81c0-4.02-3.23-7.25-7.25-7.25h-43.78c-4.01,0-7.25,3.23-7.25,7.25v30.44
				C2584.06,1382.88,2552.65,1365.46,2502.07,1365.46z M2514.56,1414.29c61.88,0,92.32,46.08,92.32,102.93
				c0,56.84-30.44,102.93-92.32,102.93c-61.88,0-92.32-46.08-92.32-102.93C2422.24,1460.38,2452.68,1414.29,2514.56,1414.29z"/>
			<path id="rect3567" inkscape:connector-curvature="0" sodipodi:nodetypes="sccssssccsscccsscccss" class="st0" d="
				M946.15,1374.16c-6.26,0-7.38,4.94-4.54,8.85l93.18,127.6l-102.27,140.81c-2.84,3.91-1.72,8.86,4.54,8.86h50.45
				c4.38,0,6.65-1.49,8.1-3.64l69.69-102.84l72.58,102.84c1.49,2.12,3.73,3.64,8.1,3.64h52.38c6.26,0,7.39-4.95,4.54-8.86
				l-102.86-140.81l92.59-127.6c2.84-3.91,1.72-8.85-4.54-8.85h-49.46c-4.38,0-6.65,1.5-8.1,3.64l-61.15,89.87l-63.17-89.87
				c-1.49-2.12-3.73-3.64-8.1-3.64H946.15z"/>
			<path id="path3599" inkscape:connector-curvature="0" sodipodi:nodetypes="sscccccccssssccs" class="st0" d="M1713.36,1365.28
				c-87.6,0-140.33,62.99-140.33,151.85c0,98.01,62.32,151.85,140.33,151.85c94.27,0,131.42-55.44,133.5-57.52
				c2.39-2.39,1.74-6.84-0.27-8.8l-27.25-26.71c-2.01-1.97-5.83-2.27-8.47,0.39c-1.99,2.01-35.16,43.93-89.5,43.93
				c-57.76,0-86.19-35.39-90.02-87.52h215.24c6.67,0,7.04-5.93,7.05-9.83C1854.09,1417.09,1792.59,1365.28,1713.36,1365.28z
				 M1713.55,1411.34c52.98,0,75.18,31.86,79.86,77.24h-159.96C1639.73,1444.09,1663.1,1411.34,1713.55,1411.34z"/>
		</g>
		<g id="g3744">
			<path id="rect3636" inkscape:connector-curvature="0" class="st1" d="M120.46,1226.34h278.06c54.56,0,98.49,43.93,98.49,98.49
				v278.06c0,54.56-43.93,98.49-98.49,98.49H120.46c-54.56,0-98.49-43.93-98.49-98.49v-278.06
				C21.97,1270.27,65.9,1226.34,120.46,1226.34z"/>
			<g id="g3738">
				<path id="path3707" inkscape:connector-curvature="0" class="st0" d="M154.81,1311.39c-4.43,0-7.21,1.02-9.55,3.36l-47.47,47.47
					c-0.88,0.88-1.38,2.08-1.38,3.32c0,2.6,2.1,4.7,4.7,4.7h205.78l-126.51,126.51c-2.49,2.49-3.94,3.94-3.94,8.84l0,33.29
					c0,2.02,0.92,3.76,2.23,5.08c1.32,1.32,3.06,2.23,5.08,2.23h33.29c4.89,0,6.34-1.45,8.83-3.94l126.51-126.51v205.78
					c0,2.59,2.1,4.7,4.7,4.7c1.25,0,2.44-0.5,3.32-1.38l47.47-47.47c2.34-2.34,3.36-5.13,3.36-9.55l0-224.7
					c0-17.52-14.2-31.72-31.72-31.72c0,0,0,0,0,0L154.81,1311.39z"/>
				<path id="rect3709" inkscape:connector-curvature="0" class="st0" d="M114.5,1555.43h45.66c3.82,0,6.89,3.07,6.89,6.89v45.95
					c0,3.82-3.07,6.89-6.89,6.89H114.5c-3.82,0-6.89-3.07-6.89-6.89v-45.95C107.6,1558.5,110.68,1555.43,114.5,1555.43z"/>
			</g>
		</g>
	</g>
</g>
</svg>
