<svg xmlns="http://www.w3.org/2000/svg" height="1200" width="1200" viewBox="-90 -31.45 780 188.7"><path fill="#FF8000" d="M417.7 1.8h-21c-1.2 0-1.8 1.2-1.8 1.8v45.7h-21V3.6c0-1.2-1.2-1.8-1.8-1.8h-21c-1.2 0-1.8 1.2-1.8 1.8v117.3c0 1.2 1.2 1.8 1.8 1.8h21c1.2 0 1.8-1.2 1.8-1.8V74h21v46.9c0 1.2 1.2 1.8 1.8 1.8h21c1.2 0 1.8-1.2 1.8-1.8V3.6c0-.6-.6-1.8-1.8-1.8m-177 0h-21c-1.2 0-1.8.6-1.8 1.8v83.1c0 4.2-1.2 7.2-3 9.6-1.8 2.4-4.2 3-7.2 3-2.9 0-5.4-1.2-7.2-3-1.8-2.4-3-5.4-3-9.6V3.6c0-1.2-1.2-1.8-1.8-1.8h-21c-1.2 0-1.8.6-1.8 1.8v83.7c0 10.8 2.4 21 9 27.7 6.6 6.6 15.6 10.2 25.9 10.2 10.8 0 19.9-3.6 25.9-10.2 6.6-6.6 9-16.2 9-27.7V3.6c-.1-.6-.7-1.8-2-1.8M34.9 0C24.1 0 15 3.6 9 10.2c-6.6 6.6-9 16.2-9 27.7v50c0 10.8 2.4 21 9 27.7 6.6 6.6 15.6 10.2 25.9 10.2 10.8 0 19.9-3.6 25.9-10.2 6.6-6.6 9-16.2 9-27.7V60.3c0-1.2-1.2-2.4-2.4-2.4H36.7c-1.2 0-2.4 1.2-2.4 2.4v20.5c0 1.2 1.2 2.4 2.4 2.4h7.9V88c0 4.2-1.2 7.9-3 10.2-1.8 2.4-4.2 3-7.2 3-2.9 0-5.4-1.2-7.2-3-1.8-2.4-3-6-3-10.2V38.6c0-4.2 1.2-7.9 3-10.2 1.8-2.4 4.2-3 7.2-3 2.9 0 5.4 1.2 7.2 3 1.8 2.4 3 6 3 10.2v4.8c0 1.2 1.2 1.8 1.8 1.8h21c1.2 0 1.8-.6 1.8-1.8v-4.8c0-10.8-2.4-21-9-27.7C54.8 3.6 45.1 0 34.9 0m270.8 95.7c-1.8 2.4-4.2 3-7.9 3h-12V73.3h12c3 0 5.4 1.2 7.2 3 1.8 2.4 3 5.4 3 9 .2 5-.4 7.9-2.3 10.4zm-19.9-69.2h10.8c3 0 5.4.6 7.2 3 1.8 1.8 2.4 4.8 2.4 8.5s-.6 6.6-2.4 9c-1.8 1.8-4.2 3-6.6 3h-10.8V26.5zm34.9 34.3c3.6-3.6 10.2-12 10.2-22.9 0-12.7-4.8-20.5-8.5-24.7-6.6-7.2-15.6-10.8-25.9-10.8h-32.9c-1.2 0-1.8 1.2-1.8 1.8v117.4c0 1.2 1.2 1.8 1.8 1.8h34.9c10.8 0 21-4.2 27.7-12.7 3.6-4.8 7.9-12.7 7.9-24.7-.7-14.4-9.7-22.9-13.4-25.2zM129.4 49.3c-1.8 2.4-4.8 3.6-8.5 3.6h-10.2V26.5h10.2c3.6 0 6.6 1.2 8.5 3.6 2.4 2.4 3 5.4 3 9.6 0 4.2-.5 7.2-3 9.6zM142.7 71c2.4-1.8 4.2-3 6-5.4 4.2-4.8 9.6-13.3 9.6-26.5 0-12.7-4.8-21-9.6-25.9-6-7.2-15-10.8-25.3-11.4H88.5c-1.2 0-1.8 1.2-1.8 1.8v117.3c0 1.2 1.2 1.8 1.8 1.8h21c1.2 0 1.8-1.2 1.8-1.8V77.5h7.2l13.3 44.5c0 .6 1.2 1.2 1.8 1.2h22.2c.6 0 1.2-.6 1.8-.6.6 0 .6-1.2.6-1.8zm428.4 24.7c-1.8 2.4-4.2 3-7.9 3h-12V73.3h12c3 0 5.4 1.2 7.2 3 1.8 2.4 3 5.4 3 9 .7 5-.4 7.9-2.3 10.4zm-19.3-69.2h10.8c3 0 5.4.6 7.2 3 1.8 1.8 2.4 4.8 2.4 8.5s-.6 6.6-2.4 9c-1.8 1.8-4.2 3-6.6 3h-10.8V26.5zm34.9 34.3c3.6-3.6 10.2-12 10.2-22.9 0-12.7-4.8-20.5-8.5-24.7-6.6-7.2-15.6-10.8-25.9-10.8h-33.2c-1.2 0-1.8 1.2-1.8 1.8v117.4c0 1.2 1.2 1.8 1.8 1.8h35.1c10.8 0 21-4.2 27.7-12.7 3.6-4.8 7.9-12.7 7.9-24.7-1.2-14.4-10.2-22.9-13.3-25.2zm-80.6-59h-21c-1.2 0-1.8.6-1.8 1.8v83.1c0 4.2-1.2 7.2-3 9.6-1.8 2.4-4.2 3-7.2 3-2.9 0-5.4-1.2-7.2-3-1.8-2.4-3-5.4-3-9.6V3.6c0-1.2-1.2-1.8-1.8-1.8H440c-1.2 0-1.8.6-1.8 1.8v83.7c0 10.8 2.4 21 9 27.7 6.6 6.6 15.6 10.2 25.9 10.2 10.8 0 19.9-3.6 25.9-10.2 6.6-6.6 9-16.2 9-27.7V3.6c.6-.6-.6-1.8-1.9-1.8"/></svg>