<?xml version="1.0" encoding="utf-8"?>
<svg version="1.1" id="katman_1" xmlns="http://www.w3.org/2000/svg" xmlns:xlink="http://www.w3.org/1999/xlink" x="0px" y="0px"
	 viewBox="0 -123.305 841.89 841.89" style="enable-background:new 0 -123.305 841.89 841.89;" xml:space="preserve">
<style type="text/css">
	.st0{clip-path:url(#SVGID_00000090260843074373727350000009205750514929044912_);}
	.st1{fill:#E73648;}
	.st2{fill:#191F3A;}
	.st3{fill:#FDDB33;}
</style>
<g>
	<defs>
		<rect id="SVGID_1_" x="82.77" y="236.12" width="676.33" height="122.04"/>
	</defs>
	<clipPath id="SVGID_00000154402318885765304000000003246101361554739073_">
		<use xlink:href="#SVGID_1_"  style="overflow:visible;"/>
	</clipPath>
	<g style="clip-path:url(#SVGID_00000154402318885765304000000003246101361554739073_);">
		<path class="st1" d="M179.69,358.17h-71.84c-13.82,0-25.07-11.25-25.07-25.13V261.2c0-13.82,11.25-25.07,25.07-25.07h71.84
			c13.88,0,25.07,11.25,25.07,25.07v71.84C204.82,346.92,193.57,358.17,179.69,358.17z"/>
		<path class="st2" d="M126.28,290.18c0-1.02-0.7-1.71-1.71-1.71h-11.89c-1.02,0-1.71,0.7-1.71,1.71v11.84
			c0,1.02,0.7,1.71,1.71,1.71h11.84c1.02,0,1.71-0.7,1.71-1.71v-11.84H126.28z"/>
		<path class="st2" d="M152.48,316.43c0-1.02-0.75-1.71-1.71-1.71h-11.84c-1.02,0-1.71,0.7-1.71,1.71v11.84
			c0,1.02,0.7,1.71,1.71,1.71h11.84c1.02,0,1.71-0.7,1.71-1.71V316.43L152.48,316.43z"/>
		<path class="st3" d="M152.48,290.18c0-1.02-0.7-1.71-1.71-1.71h-11.84c-1.02,0-1.71,0.7-1.71,1.71v11.84
			c0,1.02,0.7,1.71,1.71,1.71h11.84c1.02,0,1.71-0.7,1.71-1.71V290.18L152.48,290.18z"/>
		<path class="st2" d="M493.16,303.63c1.72-12.05,8.04-19.93,20.57-19.93c12.86,0,19.66,7.39,20.63,19.93H493.16z M514.05,271.86
			c-20.09,0-36.11,14.47-36.11,38.41c0,24.54,14.14,39.59,37.98,39.59c13.72,0,25.13-6.05,32.2-14.47c0.43-0.43,0.59-0.86,0.59-1.29
			c0-0.43-0.16-0.86-0.59-1.29l-6.64-6.48c-0.43-0.43-0.86-0.59-1.29-0.59s-0.86,0.27-1.29,0.75c-5.46,5.95-12.59,10.98-22.82,10.98
			c-14.95,0-22.13-9.22-23.25-22.56h55.45c1.02,0,1.71-0.75,1.71-1.71v-2.89C550,288.36,536.71,271.86,514.05,271.86z"/>
		<path class="st2" d="M322.35,246.57h-12c-1.02,0-1.71,0.75-1.71,1.71v40.45h-48.7v-40.4c0-1.02-0.7-1.71-1.71-1.71h-12
			c-1.02,0-1.71,0.75-1.71,1.71v97.61c0,1.02,0.7,1.71,1.71,1.71h12c1.02,0,1.71-0.75,1.71-1.71v-43.61h48.7v43.61
			c0,1.02,0.7,1.71,1.71,1.71h12c1.02,0,1.71-0.75,1.71-1.71v-97.61C324.12,247.32,323.37,246.57,322.35,246.57z"/>
		<path class="st2" d="M576.3,246.57h-11.57c-1.02,0-1.71,0.75-1.71,1.71v97.67c0,1.02,0.69,1.71,1.71,1.71h11.57
			c1.02,0,1.72-0.75,1.72-1.71v-97.61C578.02,247.32,577.27,246.57,576.3,246.57z"/>
		<path class="st2" d="M377.01,337.16c-16.02,0-24.54-12-24.54-26.31c0-14.3,8.52-26.31,24.54-26.31c16.02,0,24.54,12,24.54,26.31
			C401.55,325.16,393.03,337.16,377.01,337.16z M377.01,271.86c-21.54,0-39.59,15.91-39.59,39c0,23.09,18.05,39,39.59,39
			c21.54,0,39.59-15.91,39.59-39C416.61,287.77,398.5,271.86,377.01,271.86z"/>
		<path class="st2" d="M469.11,274.16h-18.75v-24.43c0-1.29-1.29-1.88-2.14-1.02l-11.68,11.68c-0.69,0.7-1.18,1.45-1.18,2.57v11.2
			H422.5c-1.02,0-1.72,0.7-1.72,1.71v8.09c0,1.02,0.7,1.71,1.72,1.71h12.86v39.43c0,13.72,6.48,22.56,20.2,22.56h13.55
			c1.02,0,1.72-0.7,1.72-1.71v-9.21c0-1.02-0.7-1.71-1.72-1.71h-9.53c-6.8,0-9.22-2.63-9.22-9.38v-39.91h18.75
			c1.02,0,1.72-0.7,1.72-1.71v-8.09C470.87,274.91,470.12,274.16,469.11,274.16z"/>
		<path class="st2" d="M664.07,341.4h-4.98c-0.48,0-0.86,0.32-0.86,0.86v4.66c0,0.48,0.32,0.86,0.86,0.86h4.98
			c0.48,0,0.86-0.32,0.86-0.86v-4.66C664.92,341.77,664.6,341.4,664.07,341.4z"/>
		<path class="st2" d="M709.01,343.75c-4.66,0-7.02-3.16-7.02-7.34c0-4.02,2.3-7.34,7.02-7.34c4.66,0,7.02,3.32,7.02,7.34
			C715.98,340.59,713.67,343.75,709.01,343.75z M709.01,324.63c-6.48,0-12,4.82-12,11.84c0,7.18,5.52,11.84,12,11.84
			c6.48,0,12-4.66,12-11.84C721.01,329.45,715.49,324.63,709.01,324.63z"/>
		<path class="st2" d="M624.09,303.63c-11.84-2.57-17.63-4.61-17.63-10.71c0-5.79,5.2-9.21,14.46-9.21c8.25,0,14.73,3.75,18.91,9.7
			c0.59,0.86,1.61,1.02,2.46,0.43l7.82-5.04c0.86-0.59,1.18-1.45,0.59-2.46c-6.37-9.7-16.45-14.47-29.63-14.47
			c-14.73,0-27.86,7.23-27.86,21.97c0,15.48,12.27,19.5,28.45,22.98c11.41,2.46,16.45,4.34,16.45,11.14
			c0,6.64-5.95,10.13-15.91,10.13c-10.39,0-17.04-4.07-21.64-10.82c-0.59-1.02-1.61-1.29-2.62-0.59l-7.82,5.41
			c-0.86,0.59-1.02,1.45-0.59,2.3c5.89,9.97,16.88,15.59,32.52,15.59c19.5,0,30.76-9.7,30.76-22.66
			C652.81,312.15,640.27,307.27,624.09,303.63z"/>
		<path class="st2" d="M750.75,324.63c-3.32,0-5.52,1.34-7.34,3.48c-1.18-1.98-3.64-3.48-6.64-3.48c-3.16,0-5.14,1.5-6.32,3.16
			v-1.66c0-0.48-0.32-0.86-0.86-0.86h-3.32c-0.48,0-0.86,0.32-0.86,0.86v20.84c0,0.48,0.32,0.86,0.86,0.86h3.48
			c0.48,0,0.86-0.32,0.86-0.86v-10.82c0-4.18,1.18-7.02,4.82-7.02c3.16,0,4.18,1.82,4.18,4.82v12.97c0,0.48,0.32,0.86,0.86,0.86
			h3.48c0.48,0,0.86-0.32,0.86-0.86v-10.82c0-4.18,1.34-7.02,4.98-7.02c3,0,4.18,1.82,4.18,4.82v12.97c0,0.48,0.32,0.86,0.86,0.86
			h3.48c0.48,0,0.86-0.32,0.86-0.86V333.2C759.05,328.11,755.89,324.63,750.75,324.63z"/>
		<path class="st2" d="M691.49,340.27c-0.48-0.48-1.02-0.32-1.34,0c-2.3,2.52-3.86,3.48-6.32,3.48c-4.18,0-6.32-3.16-6.32-7.34
			c0-4.02,1.82-7.34,6.16-7.34c2.84,0,4.34,1.18,5.84,2.84c0.32,0.32,0.86,0.48,1.34,0.16l1.98-1.66c0.48-0.32,0.86-0.86,0.32-1.5
			c-1.82-2.52-4.98-4.34-9.48-4.34c-6.86,0-11.3,4.66-11.3,11.84s4.5,12,11.14,12c4.66,0,7.98-1.98,10.18-4.98
			c0.32-0.48,0.32-0.86,0-1.18L691.49,340.27z"/>
		<path class="st2" d="M182.85,265.91c0-4.34-3.48-7.82-7.82-7.82h-58.34c-1.18,0-1.88,0.43-2.57,1.18l-11.73,11.68
			c-0.86,0.86-0.27,2.2,1.02,2.2h64.4v64.4c0,1.29,1.29,1.88,2.2,1.02l11.73-11.68c0.75-0.75,1.13-1.45,1.13-2.63V265.91z"/>
	</g>
</g>
</svg>
