<svg xmlns="http://www.w3.org/2000/svg" height="800" width="1200" viewBox="-17.714925 -4.905725 153.52935 29.43435"><defs><clipPath clipPathUnits="userSpaceOnUse" id="f"><path d="M589.4997 28.9718h94.5002V12.9375h-94.5002z"/></clipPath><clipPath clipPathUnits="userSpaceOnUse" id="g"><path d="M589.4998 12.9375H684v16.0343h-94.5002z"/></clipPath><clipPath clipPathUnits="userSpaceOnUse" id="c"><path d="M589.4997 28.9718h94.5002V12.9375h-94.5002z"/></clipPath><clipPath clipPathUnits="userSpaceOnUse" id="d"><path d="M589.4998 28.6562h94.4801V12.958h-94.4801z"/></clipPath><clipPath clipPathUnits="userSpaceOnUse" id="e"><path d="M589.4998 12.9375H684v16.0343h-94.5002z"/></clipPath><clipPath clipPathUnits="userSpaceOnUse" id="a"><path d="M589.4997 28.9718h94.5002V12.9375h-94.5002z"/></clipPath><clipPath clipPathUnits="userSpaceOnUse" id="b"><path d="M589.4998 12.9375H684v16.0343h-94.5002z"/></clipPath></defs><g clip-path="url(#a)" transform="matrix(1.25 0 0 -1.25 -736.8747 35.8203)"><g clip-path="url(#b)"><path d="M626.5585 27.2166c0 .7959.6424 1.4396 1.4332 1.4396.7935 0 1.4384-.6437 1.4384-1.4396 0-.795-.6449-1.4394-1.4384-1.4394-.7908 0-1.4332.6445-1.4332 1.4394" fill="#fff"/><path d="M649.215 17.6407c0 .7962.6421 1.4407 1.4329 1.4407.7932 0 1.438-.6445 1.438-1.4407 0-.7942-.6448-1.4394-1.438-1.4394-.7908 0-1.4329.6451-1.4329 1.4394" fill="#fff"/><path d="M602.9915 18.263c-1.2367 0-2.0961.9821-2.0961 2.3856 0 1.4032.8594 2.3847 2.0961 2.3847 1.2438 0 2.1127-.9815 2.1127-2.3847 0-1.4257-.8508-2.3857-2.1127-2.3857zm0 6.867c-2.6164 0-4.5152-1.8852-4.5152-4.4814 0-2.5962 1.8988-4.481 4.5152-4.481 2.6262 0 4.5329 1.8848 4.5329 4.481 0 2.5962-1.9067 4.4814-4.5329 4.4814m20.7859-4.7055c-.1017.1914-.2183.3534-.3425.482l-.0791.084.0832.0798c.1201.1266.2429.2767.3613.4507l2.3089 3.4323h-2.8029l-1.7348-2.6849c-.0982-.144-.2965-.2166-.5933-.2166h-.3954v5.076c0 1.0153-.6325 1.1535-1.3158 1.1535h-1.1698l.002-11.9817h2.4836v3.594h.2327c.2831 0 .4759-.0327.5643-.1866l1.3701-2.586c.3827-.7017.7641-.8214 1.4816-.8214h1.9033l-1.4175 2.3447-.9399 1.7802m12.0571 4.7247c-1.2633 0-2.0694-.5612-2.5211-1.0358l-.1508-.1525-.0532.2074c-.1327.5084-.58.7881-1.2531.7881h-1.1131l.007-8.6538h2.4667v3.9885c0 .39.0507.7284.1538 1.0371.2746.9344 1.0405 1.5154 1.9978 1.5154.77 0 1.0709-.4063 1.0709-1.4564v-3.769c0-.8963.4145-1.3156 1.3114-1.3156h1.1739l-.004 5.504c0 2.1867-1.0665 3.3426-3.0855 3.3426m-7.8107-.1966h-1.1692l.008-6.691h-.0008v-1.961h1.248c.0157 0 .0283-.0017.044-.0017l.5813.0017h.5786v.0034h.004l.005 7.3349c0 .885-.4231 1.3137-1.2981 1.3137m-15.3447-6.6896c-1.2366 0-2.0977.9821-2.0977 2.3856 0 1.4032.8611 2.3847 2.0977 2.3847 1.2412 0 2.1125-.9815 2.1125-2.3847 0-1.4257-.8505-2.3857-2.1125-2.3857zm0 6.867c-2.619 0-4.5182-1.8852-4.5182-4.4814 0-2.5962 1.8992-4.481 4.5182-4.481 2.6235 0 4.5333 1.8848 4.5333 4.481 0 2.5962-1.9098 4.4814-4.5333 4.4814" fill="#fff"/></g></g><g clip-path="url(#c)" transform="matrix(1.25 0 0 -1.25 -736.8747 35.8203)"><g clip-path="url(#d)"><g clip-path="url(#e)"><path d="M665.5551 18.263c-1.2361 0-2.0978.9821-2.0978 2.3856 0 1.4032.8617 2.3847 2.0978 2.3847 1.2414 0 2.1131-.9815 2.1131-2.3847 0-1.4257-.8509-2.3857-2.1131-2.3857zm0 6.867c-2.6184 0-4.5176-1.8852-4.5176-4.4814 0-2.5962 1.8992-4.481 4.5176-4.481 2.6238 0 4.5332 1.8848 4.5332 4.481 0 2.5962-1.9094 4.4814-4.5332 4.4814" fill="#fff"/><path d="M644.1219 18.6437c-1.3486 0-1.8286 1.1766-1.8286 2.2792 0 .4858.1228 2.0691 1.699 2.0691.7833 0 1.8272-.2245 1.8272-2.1506 0-1.8167-.9238-2.1977-1.6976-2.1977zm2.9783 6.3322c-.4681 0-.8283-.1867-1.0088-.5275l-.0682-.1323-.1143.0992c-.3982.3446-1.1121.7533-2.2714.7533-2.3066 0-3.8595-1.7324-3.8595-4.3105 0-2.575 1.6068-4.3746 3.9059-4.3746.7853 0 1.4059.1832 1.8978.5557l.1904.143v-.2406c0-1.1558-.7475-1.7934-2.1025-1.7934-.6585 0-1.2579.1603-1.6587.3057-.5234.1579-.8301.0272-1.0423-.4978l-.1958-.4844-.277-.7076.1716-.0914c.8672-.4602 1.9961-.7349 3.0165-.7349 2.1008 0 4.5537 1.0753 4.5537 4.1014l.009 7.9367h-1.146" fill="#fff"/></g></g></g><g clip-path="url(#f)" transform="matrix(1.25 0 0 -1.25 -736.8747 35.8203)"><g clip-path="url(#g)"><path d="M593.8048 18.3622l-2.008.002v2.4007c0 .5131.1989.7799.6386.8413h1.3694c.9774 0 1.6089-.6165 1.6096-1.6137-.0007-1.0234-.6165-1.6297-1.6096-1.6303zm-2.008 6.4762v.6318c0 .553.234.816.7475.8498h1.0275c.8812 0 1.409-.5274 1.409-1.4096 0-.6728-.3613-1.4578-1.3766-1.4578h-1.8074zm4.5725-2.396l-.363.204.3169.271c.3685.3169.9863 1.0292.9863 2.26 0 1.8833-1.4608 3.0988-3.7217 3.0988h-2.5801v.0007h-.2938c-.6703-.0246-1.2066-.5697-1.2141-1.2442V16.3432h1.1841c.003-.0006.004 0 .005-.0006l2.9499.0006c2.5133 0 4.1355 1.368 4.1355 3.487 0 1.1408-.5243 2.1162-1.4055 2.6122" fill="#fff"/><path d="M681.1074 25.1212c-1.0235 0-2.0129-.4793-2.6481-1.2831l-.1788-.2265-.1402.2534c-.4568.8331-1.2432 1.2562-2.3366 1.2562-1.1466 0-1.9156-.6397-2.2728-1.02l-.2337-.2532-.09.333c-.1304.4793-.5571.7433-1.2036.7433h-1.0368l-.01-8.6203h2.3557v3.8053c0 .3333.0413.6632.1248 1.008.2252.9195.8431 1.9085 1.8819 1.8096.6407-.0614.9535-.5565.9535-1.5127V16.304h2.3724v3.8053c0 .4165.0389.7283.1328 1.0412.191.8778.8361 1.7777 1.8384 1.7777.7253 0 .9935-.4107.9935-1.514v-3.85c0-.871.3885-1.2602 1.2588-1.2602h1.1088l.002 5.5032c0 2.1984-.9679 3.314-2.8725 3.314m-21.4334-5.8242c-.007-.0085-1.0207-1.0774-2.3553-1.0774-1.2159 0-2.4444.7461-2.4444 2.4116 0 1.438.9525 2.443 2.3158 2.443.4428 0 .9463-.1586 1.0251-.4254l.0116-.045c.1815-.6049.7312-.6373.8393-.6373l1.2906-.0014v1.1282c0 1.4881-1.8928 2.0278-3.1666 2.0278-2.7238 0-4.7002-1.8964-4.7002-4.508 0-2.6105 1.9549-4.5043 4.6504-4.5043 2.3386 0 3.6104 1.5373 3.6223 1.5526l.0679.0833-1.0221 1.6955-.1344-.1433" fill="#fff"/></g></g></svg>