<svg xmlns="http://www.w3.org/2000/svg" height="800" width="1200" viewBox="-44.97 -30.031 389.74 180.186"><path d="M38.766 26.208C17.621 26.208 0 35.18 0 62.245c0 21.441 11.849 34.944 39.312 34.944 32.327 0 34.399-21.294 34.399-21.294H58.047S54.69 87.36 38.357 87.36c-13.302 0-22.87-8.986-22.87-21.58H75.35v-7.904c0-12.46-7.91-31.669-36.583-31.669zM38.22 36.31c12.663 0 21.295 7.757 21.295 19.384h-43.68c0-12.343 11.266-19.384 22.385-19.384z" fill="#e53238"/><path d="M75.338 0v83.597c0 4.745-.339 11.408-.339 11.408h14.94s.536-4.785.536-9.159c0 0 7.381 11.548 27.451 11.548 21.135 0 35.49-14.673 35.49-35.695 0-19.557-13.186-35.286-35.456-35.286-20.854 0-27.334 11.261-27.334 11.261V0zm38.766 36.753c14.352 0 23.478 10.652 23.478 24.946 0 15.327-10.54 25.355-23.375 25.355-15.318 0-23.581-11.96-23.581-25.219 0-12.354 7.414-25.082 23.478-25.082z" fill="#0064d2"/><path d="M190.545 26.208c-31.812 0-33.852 17.42-33.852 20.203h15.834s.83-10.17 16.926-10.17c10.46 0 18.564 4.788 18.564 13.992v3.276h-18.564c-24.645 0-37.674 7.21-37.674 21.84 0 14.398 12.038 22.233 28.307 22.233 22.171 0 29.313-12.251 29.313-12.251 0 4.872.376 9.674.376 9.674h14.076s-.546-5.952-.546-9.76V52.331c0-21.58-17.407-26.123-32.76-26.123zm17.472 37.129v4.368c0 5.697-3.515 19.86-24.212 19.86-11.333 0-16.192-5.655-16.192-12.216 0-11.935 16.364-12.012 40.404-12.012z" fill="#f5af02"/><path d="M214.779 28.941h17.813l25.565 51.217 25.507-51.217H299.8l-46.46 91.183h-16.925l13.406-25.418z" fill="#86b817"/></svg>