<svg width="1200" height="800" xmlns="http://www.w3.org/2000/svg" viewBox="-45 -104.53075 390 627.1845"><path d="M.06 149.98C.06 67.136 67.192 0 150.02 0 232.846 0 300 67.132 300 149.98c0 82.793-67.15 149.96-149.98 149.96C67.194 299.94.06 232.775.06 149.98zm149.93 99.95c55.206 0 99.96-44.763 99.96-99.955 0-55.216-44.753-99.978-99.96-99.978-55.202 0-99.955 44.758-99.955 99.978 0 55.192 44.758 99.955 99.955 99.955zm49.98-99.96c0 27.601-22.374 49.98-49.98 49.98-27.606 0-49.975-22.379-49.975-49.98 0-27.601 22.374-49.98 49.98-49.98 27.606 0 49.975 22.379 49.975 49.98zM25.938 319.38v17.631H37.77v10.806H25.938v29.125c0 5.459 1.366 6.825 6.824 6.825 1.822 0 3.643-.112 5.009-.456v12.627c-2.732.456-6.37.567-9.557.567-12.4 0-18.43-3.754-18.43-14.22v-34.468H0v-10.806h9.784v-17.63zm70.073 61.088c0 3.865.683 4.664 4.097 4.664h.456V395.6c-1.478.683-3.299 1.366-6.714 1.366-7.507 0-11.373-2.276-12.627-7.623-3.865 4.664-10.695 8.074-20.474 8.074-12.06 0-20.024-6.258-20.024-17.631 0-5.687 1.822-9.668 5.12-12.511 3.754-3.187 9.213-4.892 18.997-5.914 10.467-1.138 15.015-2.049 15.015-7.28 0-6.713-4.892-7.852-10.35-7.852-6.714 0-10.24 2.732-10.807 8.874H42.546c.683-12.855 11.261-19.68 27.76-19.68 17.18 0 25.71 5.802 25.71 16.72v28.326zm-29.232 6.142c8.646 0 13.083-4.665 13.083-13.31v-6.258c-1.478 1.366-4.32 2.16-9.784 2.843-8.307 1.022-13.2 2.843-13.2 9.213 0 4.669 2.844 7.512 9.9 7.512zm75.653-50.621v15.015a27.935 27.935 0 00-5.803-.567c-11.717 0-15.926 8.075-15.926 18.885v26.504H104.55V337.01h15.36v10.922h.227c3.07-7.396 10.695-12.511 18.769-12.511 1.593-.005 2.727.34 3.526.567zm42.774 8.873h.227v-7.851h15.36v55.174c0 15.243-8.874 25.938-30.375 25.938-13.649 0-25.366-6.941-26.049-18.885h16.042c1.366 5.686 5.803 8.079 12.056 8.079 8.307 0 12.971-5.231 12.971-14.221v-8.074h-.227c-3.183 5.686-9.668 9.1-17.631 9.1-16.953 0-25.143-12.4-25.143-29.574 0-15.015 8.757-29.125 25.255-29.125 8.413-.005 13.872 3.182 17.515 9.44zm-13.538 37.083c8.757 0 13.766-7.168 13.766-16.38 0-8.191-2.504-17.976-13.877-17.976-8.302 0-12.967 7.053-12.967 16.72-.005 9.561 3.749 17.636 13.078 17.636zm92.262-14.56c0 .91-.112 2.96-.112 2.96h-42.43c.456 10.123 5.12 14.904 14.332 14.904 6.142 0 11.605-3.527 12.855-7.624h14.221c-4.325 13.31-13.426 19.796-27.53 19.796-18.659 0-30.032-12.855-30.032-30.941 0-17.747 12.284-31.057 30.031-31.057 18.542-.005 28.665 14.56 28.665 31.963zm-16.265-7.28c-1.594-8.873-5.46-12.51-12.971-12.51-7.852 0-12.627 4.78-13.31 12.51zm40.502-40.725v17.631H300v10.806h-11.833v29.125c0 5.46 1.366 6.825 6.824 6.825 1.822 0 3.643-.111 5.009-.455v12.627c-2.732.455-6.37.566-9.557.566-12.4 0-18.43-3.753-18.43-14.22v-34.468h-9.784v-10.806h9.784v-17.63z" fill="#c00"/></svg>