<svg xmlns="http://www.w3.org/2000/svg" viewBox="-81.9 -86.8 274.8 274.8"><path d="m 1.8349203,179.94024 c 7.0911866,0.10734 11.6139887,-4.09474 11.6139887,-10.7904 0,-2.25882 -0.514732,-4.22309 -1.58874,-6.06257 L -4.6994938,134.72449 c -2.4098096,-4.12745 -5.5301582,-6.08382 -9.7034762,-6.08382 -4.306973,0 -7.705834,2.08369 -9.785071,5.99882 l -14.812324,27.89084 c -1.040563,1.9593 -1.614691,4.23236 -1.614691,6.39274 0,6.07294 4.536738,10.44329 10.941531,10.54023 z M 31.299757,165.09142 c 7.647779,2.82694 11.864676,8.59485 11.864676,16.22857 0,10.17233 -7.488353,17.59564 -17.749796,17.59564 -3.815723,0 -7.278912,-1.02645 -12.14507,-3.59973 -10.4218595,-5.51116 -21.309638,-7.57678 -39.936899,-7.57678 -11.088419,0 -16.749752,0.73195 -23.044904,2.97952 -2.830352,1.01051 -4.646469,1.39826 -6.549096,1.39826 -6.622815,0 -11.506018,-4.69961 -11.506018,-11.07346 0,-4.41221 2.339478,-7.89018 8.1274,-12.0825 16.425355,-11.8972 28.668982,-35.06399 30.007925,-56.77951 0.515191,-8.35573 7.1435,-14.532685 15.594584,-14.532685 8.4626254,0 15.3228438,6.280245 15.8510795,14.511045 1.6134564,25.13914 13.8825865,47.16393 29.4861185,52.93163 z" transform="translate(67.76735 -97.648745)" fill="#fff" /></svg>
