<svg xmlns="http://www.w3.org/2000/svg" viewBox="-106.43 -106.43 357.26 357.26"><circle cx="72.2" cy="72.2" r="72.2" fill="#ff4e00" /><path d="M790.3-658l-0.9-5.9a20.8,20.8,0,0,1-15.6,6.8c-8,0-13-4.8-13-12.3,0-11,9.4-15.4,27.9-17.3v-1.9c0-5.6-3.3-7.5-8.4-7.5s-10.5,1.7-15.3,3.8l-1.1-7.1c5.3-2.1,10.3-3.7,17.1-3.7,10.7,0,15.9,4.3,15.9,14.2V-658h-6.7Zm-1.6-22.4c-16.3,1.6-19.7,6-19.7,10.6s2.4,5.9,6.6,5.9,9.4-2.4,13.1-6.2v-10.3Z" transform="translate(-743.7 752.2)" fill="#fff" /><path d="M816.1-684.1V-658h-8.2v-44.1h6.6l1.4,9c3.1-5,8.2-9.5,15.5-9.9l1.3,7.9C825.3-694.8,819.1-689.9,816.1-684.1Z" transform="translate(-743.7 752.2)" fill="#fff" /><path d="M853.4-657.1a36.2,36.2,0,0,1-16.1-4.2l1.2-7.8a27.6,27.6,0,0,0,15.6,5.1c5.6,0,9-2.1,9-5.8s-2.5-5.6-10.5-7.5c-10.4-2.6-14.5-5.7-14.5-13.6s5.9-12.2,15.6-12.2a35.7,35.7,0,0,1,14.5,3l-1.3,7.8a28.2,28.2,0,0,0-13.4-3.8c-5,0-7.6,1.9-7.6,5.1s2.2,4.6,9.2,6.4c10.9,2.8,15.8,5.9,15.8,14.3S864.8-657.1,853.4-657.1Z" transform="translate(-743.7 752.2)" fill="#fff" /></svg>
