<svg
  xmlns="http://www.w3.org/2000/svg"
  xmlns:xlink="http://www.w3.org/1999/xlink"

  x="0px"
  y="0px"
  style="enable-background: new -53 -158 400 400"
  viewBox="-53 -158 400 400"
>
  <g>
    <path
      d="M294,0v84h-84V0H294z M189,0v84h-84V0H189z M84,0v84H0V0H84z M255.9,17.9c-3.8,0-7.2,0.6-10.2,1.7c-2.9,1-5.6,2.7-7.8,4.9   c-2.2,2.1-3.9,4.7-5,7.6c-1.2,3-1.7,6.3-1.7,9.9c0,3.8,0.6,7.1,1.7,10.1c1.1,3,2.7,5.5,4.8,7.6c2.1,2.1,4.6,3.7,7.7,4.8   c3,1.1,6.4,1.7,10.2,1.7c2.8,0,5.6-0.3,8.1-0.9c2.4-0.5,4.7-1.4,6.8-2.6v-9c-4.1,2.5-8.8,3.9-13.5,3.8c-3.2,0-5.9-0.6-8.2-1.8   c-2.2-1.2-4-3-5.1-5.3c-1.2-2.3-1.8-5.1-1.8-8.4c0-3.3,0.6-6.1,1.8-8.4c1.2-2.2,3-4.1,5.3-5.2c2.3-1.2,5.1-1.8,8.3-1.8   c2.4,0,4.6,0.3,6.7,0.9c2.1,0.6,4.1,1.5,5.9,2.8V21c-2.1-1.1-4.2-1.9-6.5-2.4C260.9,18.1,258.4,17.9,255.9,17.9z M146.4,18.4h-17.7   v47.2h18.8c3.7,0,6.9-0.5,9.6-1.7c2.7-1.1,4.7-2.7,6.1-4.7c1.4-2,2.2-4.5,2.2-7.3c0-2.9-0.7-5.3-2.2-7.3c-1.5-2-3.6-3.5-6.4-4.4   c2-1,3.5-2.3,4.6-3.9c1-1.7,1.5-3.6,1.5-5.8c0-3.9-1.4-6.9-4.3-9S151.6,18.4,146.4,18.4z M41.4,18.4H23.6v47.2h18.8   c3.7,0,6.9-0.5,9.6-1.7c2.7-1.1,4.7-2.7,6.1-4.7c1.4-2,2.2-4.5,2.2-7.3c0-2.9-0.7-5.3-2.2-7.3c-1.5-2-3.6-3.5-6.4-4.4   c2-1,3.5-2.3,4.6-3.9c1-1.7,1.5-3.6,1.5-5.8c0-3.9-1.4-6.9-4.3-9S46.6,18.4,41.4,18.4z M146.7,45.2c5.9,0,8.8,2.2,8.8,6.5   c0,2-0.8,3.6-2.3,4.7c-1.5,1.1-3.8,1.6-6.6,1.6h-8.4V45.2C138.2,45.2,146.7,45.2,146.7,45.2z M41.7,45.2c5.9,0,8.8,2.2,8.8,6.5   c0,2-0.8,3.6-2.3,4.7c-1.5,1.1-3.8,1.6-6.6,1.6h-8.4V45.2C33.2,45.2,41.7,45.2,41.7,45.2z M145.5,26c5.1,0,7.6,1.9,7.6,5.6   c0,1.9-0.7,3.4-2,4.5c-1.3,1.1-3.2,1.6-5.7,1.6h-7.3V26L145.5,26L145.5,26z M40.5,26c5.1,0,7.6,1.9,7.6,5.6c0,1.9-0.7,3.4-2,4.5   c-1.3,1.1-3.2,1.6-5.7,1.6h-7.3V26L40.5,26L40.5,26z"
    ></path>
  </g>
</svg>
