<svg xmlns="http://www.w3.org/2000/svg" viewBox="-120 -120 432 432"><style type="text/css">
	.squircle{fill:#003B95;}
	.bdot{fill:#FFFFFF;}
</style><path class="squircle" d="M37.8,0h116.5C175.1,0,192,16.9,192,37.8v116.5c0,20.9-16.9,37.8-37.8,37.8H37.8C16.9,192,0,175.1,0,154.2V37.8  C0,16.9,16.9,0,37.8,0z" /><g id="bdot-group"><path class="bdot" d="M144.2,143.8c6.7,0,12.1-5.5,12.1-12.2c0-6.7-5.4-12.2-12.1-12.2c-6.7,0-12.1,5.4-12.1,12.2   C132.1,138.3,137.6,143.8,144.2,143.8z" /><path class="bdot" d="M106.7,91.9l-3.1-1.7l2.7-2.3c3.2-2.7,8.4-8.8,8.4-19.3c0-16.1-12.5-26.5-31.8-26.5H60.9h-2.5   c-5.7,0.2-10.3,4.9-10.4,10.6V144h35.4c21.5,0,35.4-11.7,35.4-29.8C118.7,104.4,114.2,96.1,106.7,91.9z M67.6,66c0-4.7,2-7,6.4-7.3   h8.8c7.5,0,12,4.5,12,12.1c0,5.8-3.1,12.4-11.8,12.4H67.6V66z M84.8,126.7l-17.2,0v-20.5c0-4.4,1.7-6.7,5.5-7.2h11.7   c8.4,0,13.8,5.3,13.8,13.8C98.6,121.6,93.3,126.7,84.8,126.7z" /></g></svg>
