<svg xmlns="http://www.w3.org/2000/svg" viewBox="-1500 -6050 12000 12000">
  <title>CNN logo</title>
  <path
    d="m2800-900h-700a1 1 0 0 0 0 1800h783a117 117 0 0 0 117-117v-2066a817 817 0 0 1 1526-405l874 1529v-1124a817 817 0 0 1 1526-405l874 1529v-1941h500l100 100 100-100h500v3383a817 817 0 0 1-1526 405L6600 159v1124a817 817 0 0 1-1526 405L4200 159v1124a817 817 0 0 1-817 817H2100a1 1 0 0 1 0-4200h700v500l-100 100 100 100z"
    fill="#c00"
  />
  <path
    d="m2800-1500h-700a1500 1500 0 0 0 0 3000h1283a217 217 0 0 0 217-217v-2566a217 217 0 0 1 405-108l1590 2782a217 217 0 0 0 405-108v-2566a217 217 0 0 1 405-108l1590 2782a217 217 0 0 0 405-108v-3383"
    fill="none"
    stroke="#fff"
    stroke-width="200"
  />
</svg>
