<svg xmlns="http://www.w3.org/2000/svg" viewBox="-20.85 213.85 445.5 445.5"><g transform="translate(211.74938,-377.82863)"><g transform="matrix(0.37858848,0,0,0.37858848,-108.06807,260.21727)"><path d="M120.46,1226.34h278.06c54.56,0,98.49,43.93,98.49,98.49v278.06c0,54.56-43.93,98.49-98.49,98.49H120.46c-54.56,0-98.49-43.93-98.49-98.49v-278.06C21.97,1270.27,65.9,1226.34,120.46,1226.34z" fill="#FDDB32" /><path d="M154.81,1311.39c-4.43,0-7.21,1.02-9.55,3.36l-47.47,47.47c-0.88,0.88-1.38,2.08-1.38,3.32c0,2.6,2.1,4.7,4.7,4.7h205.78l-126.51,126.51c-2.49,2.49-3.94,3.94-3.94,8.84l0,33.29c0,2.02,0.92,3.76,2.23,5.08c1.32,1.32,3.06,2.23,5.08,2.23h33.29c4.89,0,6.34-1.45,8.83-3.94l126.51-126.51v205.78c0,2.59,2.1,4.7,4.7,4.7c1.25,0,2.44-0.5,3.32-1.38l47.47-47.47c2.34-2.34,3.36-5.13,3.36-9.55l0-224.7c0-17.52-14.2-31.72-31.72-31.72c0,0,0,0,0,0L154.81,1311.39z" fill="#191E3B" /><path d="M114.5,1555.43h45.66c3.82,0,6.89,3.07,6.89,6.89v45.95c0,3.82-3.07,6.89-6.89,6.89H114.5c-3.82,0-6.89-3.07-6.89-6.89v-45.95C107.6,1558.5,110.68,1555.43,114.5,1555.43z" fill="#191E3B" /></g></g></svg>
