<svg xmlns="http://www.w3.org/2000/svg" viewBox="-10 -10 44 44">
    <defs/>
    <path fill="#0064e0" stroke="none" d="M 22 12.037 C 22 6.494 17.523 2 12 2 C 6.477 2 2 6.494 2 12.037 C 2 16.744 5.229 20.693 9.584 21.778 L 9.584 15.104 L 7.522 15.104 L 7.522 12.037 L 9.584 12.037 L 9.584 10.715 C 9.584 7.299 11.124 5.715 14.466 5.715 C 15.1 5.715 16.193 5.84 16.64 5.965 L 16.64 8.745 Q 16.063 8.7 15.485 8.708 C 13.844999 8.708 13.212 9.331 13.212 10.952 L 13.212 12.037 L 16.478 12.037 L 15.918 15.104 L 13.212 15.104 L 13.212 22 C 18.164 21.4 22 17.168 22 12.037"/>
</svg>
