<svg xmlns="http://www.w3.org/2000/svg" xmlns:xlink="http://www.w3.org/1999/xlink" x="0px" y="0px" enable-background="new -275 -414.56 1550 1550" viewBox="-350 -489.56 1700 1700">
<g>
	<polygon fill="#FFFFFF" points="112.8490372,253.4258118 183.9198456,253.4258118 183.9198456,409.8030701    293.4021912,409.8030701 293.4021912,6.7334495 183.9198456,6.7334495 183.9198456,156.667923 112.8490372,156.667923    112.8490372,6.7334495 0.0006472,6.7334495 0.0006472,409.8030701 112.8490372,409.8030701  "/>
	<path fill="#FFFFFF" d="M795.2437744,285.7407837c44.5618286,0,80.6673584-36.1055756,80.6673584-80.6667328   c0-44.5352783-36.1055298-80.6673889-80.6673584-80.6673889c-44.5346069,0-80.6401978,36.1321106-80.6401978,80.6673889   C714.6035767,249.6352081,750.7091675,285.7407837,795.2437744,285.7407837z"/>
	<path fill="#FFFFFF" d="M610.7414551,296.7683105c16.0380859,32.8450012,71.6539307,115.0760193,184.4492798,115.0488281   C908.1193237,411.7640686,1000.0258789,317.9489746,1000,204.9937897   C999.9728394,89.6537094,908.1193237,0.0796619,795.1907349,0.0000572   C682.3953857-0.0795475,624.7648315,82.9468536,610.5291748,116.4539566   C610.6618652,66.1399078,561.0635986,6.7599845,503.061554,6.7069144H316.1730042v403.0961609l174.2443237,0.0259094   C560.6661987,409.8289795,610.6353149,348.964386,610.7414551,296.7683105z M795.2437744,102.4571228   c56.6765747,0,102.6169434,45.9403229,102.6169434,102.6169281c0,56.6759491-45.9403687,102.6162567-102.6169434,102.6162567   c-56.6494141,0-102.5897217-45.9403076-102.5897217-102.6162567   C692.6540527,148.3974457,738.5943604,102.4571228,795.2437744,102.4571228z M591.0985107,179.6782074   c-2.625,11.5045013-2.8101196,44.7469025,0.2381592,56.2255096c-8.5092773-13.0952911-28.6563721-29.2129822-41.565918-30.8296661   C562.4686279,203.4567108,583.649292,188.9563599,591.0985107,179.6782074z M420.5923767,96.4395294h55.4301147   c16.1176758,0,28.8155823,15.9319382,28.8155823,34.0643311s-12.6979065,34.0636902-28.8155823,34.0636902h-55.4301147V96.4395294z    M420.3800964,315.9342651v-68.1280365h55.4301147c16.1176758,0,28.8155823,15.9319611,28.8155823,34.0637054   c0,18.1323853-12.6979065,34.0643311-28.8155823,34.0643311H420.3800964z"/>
	<path fill="#FFFFFF" d="M292.2340088,457.3607483c-32.4217529,0-67.0148468,27.75354-86.0481415,45.0646667   c-9.4904327-30.0355835-30.6698151-45.0646667-68.7111511-45.0646667c-28.9728699,0-59.2478943,21.8433838-78.6779175,38.6749268   v-26.9050903v-4.8778992H0v4.8778992v248.70578v0.9798584h58.7968025v-0.9798584V548.4447021v-0.9818115   c19.0080528-16.8321533,46.6807137-37.3242493,67.4109344-37.3242493c24.653511,0,28.5509109,19.1141663,28.5509109,50.9774475   v157.7124023h58.7967987V561.1160889c0-4.5595093,0-9.1189575-0.4497986-13.2014771   c19.0313416-16.8341064,47.1330872-37.7759705,67.8879089-37.7759705c24.6257019,0,28.5237427,19.1141663,28.5237427,50.9774475   v157.7124023h59.2207031V561.1160889C368.7380066,491.4761963,349.7325439,457.3607483,292.2340088,457.3607483z"/>
	<path fill="#FFFFFF" d="M857.9580078,588.0224609c38.8898315-36.9534302,73.9871216-78.2287598,104.0737915-123.7710571   h-73.9851074c-18.1596069,31.0684814-40.1091309,57.8699951-67.0673218,85.7316895   c-26.9607544-27.8616943-50.7910156-54.663208-67.0950928-85.7316895h-73.9851074   c30.114502,45.5422974,65.211792,86.817627,104.0717773,123.7710571   c-41.3516846,38.5966187-77.7219849,82.5209351-110.3275757,130.7393799H747.62854   c20.0402832-33.7446289,44.5093384-62.6922607,73.3508301-92.1427612   c28.8414917,29.4505005,53.2808228,58.3981323,73.348938,92.1427612h73.9870605   C935.7091675,670.543396,899.3395386,626.6190796,857.9580078,588.0224609z"/>
	<path fill="#FFFFFF" d="M598.9411621,495.0299377c-22.295105-25.7414246-50.8440552-37.6705017-83.7958984-37.6705017   c-68.3648987,0-125.0939026,58.796814-125.0939026,131.7768555c0,72.9522095,56.7290039,131.7489624,125.0939026,131.7489624   c32.9518433,0,61.5007935-11.9290161,83.7958984-37.6704712v35.6027222h58.7962036V464.2520447h-58.7962036V495.0299377z    M522.423584,665.506958c-42.6046753,0-77.1557007-34.5400391-77.1557007-77.1660767   c0-42.6008301,34.5510254-77.1408386,77.1557007-77.1408386c42.6092529,0,77.1576538,34.5400085,77.1576538,77.1408386   C599.5812378,630.9669189,565.0328369,665.506958,522.423584,665.506958z"/>
</g>
</svg>
