<svg xmlns="http://www.w3.org/2000/svg" viewBox="-73.75 -73.75 247.5 247.5"><path d="M79.8628 0H20.1372C9.01773 0 0 9.01773 0 20.1372V79.8628C0 90.9862 9.01773 100 20.1372 100H79.8628C90.9862 100 100 90.9823 100 79.8628V20.1372C100 9.01376 90.9823 0 79.8628 0Z" fill="#E91401" /><path d="M62.5253 80.1126C62.4777 79.7874 62.446 79.4543 62.446 79.1172V59.789H59.4639V75.9725C59.4639 78.0862 60.5663 79.8152 62.5213 80.1126H62.5253Z" fill="white" /><path d="M17.2819 81.0524C17.1828 80.5528 17.1312 80.0373 17.1312 79.5059V21.3269C17.1312 20.7439 17.1986 20.2284 17.3176 19.6772C15.311 20.2641 13.8438 22.3698 13.8438 24.773V76.4127C13.8438 78.8 15.0969 80.5449 17.2819 81.0524Z" fill="white" /><path d="M62.4501 37.3716V22.3817C62.4501 22.0843 62.4739 21.7948 62.5135 21.5093C60.5228 21.7591 59.4719 23.8252 59.4719 25.9388V37.2288L62.454 37.3716H62.4501Z" fill="white" /><path d="M23.3295 81.0048V16.8814C23.3295 16.5126 23.3613 16.1518 23.4049 15.7949C21.1485 16.5285 19.7922 18.7413 19.7922 21.2753V78.907C19.7922 81.6433 21.4261 83.757 23.9601 84.2764C23.5556 83.2692 23.3335 82.1668 23.3335 81.0009L23.3295 81.0048Z" fill="white" /><path d="M64.8572 22.9369V37.4707L67.9067 37.6293V22.4769C67.9067 22.4769 67.9146 18.2852 67.9186 18.202C65.7415 18.5311 64.8572 20.6091 64.8572 22.9408V22.9369Z" fill="white" /><path d="M67.9067 80.1007V59.7494H64.8572V78.0545C64.8572 80.5488 66.031 82.5633 68.3746 82.7497C68.0772 81.9209 67.9067 81.0287 67.9067 80.0967V80.1007Z" fill="white" /><path d="M78.4313 85.7953C80.0849 85.716 81.5443 85.5415 82.0836 85.4463C84.57 85.0141 86.4338 82.8727 86.4338 80.3069V19.9032C86.4338 17.4049 84.5383 15.3785 82.2898 14.7995C82.2898 14.7995 80.6956 14.3237 78.4273 14.1928C76.3533 14.0699 74.9059 14.2325 74.9059 14.2325C72.3957 14.5299 70.4248 16.4294 70.4248 19.0863V40.3577L45.5765 39.3425V17.8015C45.5765 13.4274 41.5593 11.9364 41.5593 11.9364C40.5045 11.5041 38.7993 11.1631 36.3961 10.949C34.2984 10.7586 32.1094 10.9093 31.8119 10.941C28.7109 11.2979 26.2522 13.9311 26.2522 17.1868V81.8218C26.2562 85.0934 28.5681 87.4886 32.4107 87.4886C34.1794 87.4886 35.8529 87.4608 36.5429 87.437C37.1694 87.4132 39.5924 87.2863 40.5402 87.0444C40.564 87.0365 45.628 86.0055 45.628 80.8661L45.5765 73.4901V57.1281H70.4248V80.5528C70.4248 83.4635 72.8517 85.7913 75.6197 85.7913C75.6197 85.7913 77.1544 85.8587 78.4273 85.7953H78.4313Z" fill="white" /></svg>
