<svg xmlns="http://www.w3.org/2000/svg" xmlns:xlink="http://www.w3.org/1999/xlink" x="0px" y="0px" style="enable-background:new 0 0 123.8 61.9;" viewBox="-25.65 -56.6 175 175">
 <style type="text/css">
  .st0{fill:#F5C518;}
 </style>
 <g>
  <g>
   <path class="st0" d="M7.7,0h108.3c4.3,0,7.7,3.5,7.7,7.7v46.4c0,4.3-3.5,7.7-7.7,7.7H7.7c-4.3,0-7.7-3.5-7.7-7.7V7.7    C0,3.5,3.5,0,7.7,0z">
   </path>
  </g>
  <g transform="translate(8.000000, 7.000000)">
   <polygon points="7.5,41.4 17.1,41.4 17.1,6.5 7.5,6.5   ">
   </polygon>
   <path d="M37.8,6.5l-2.2,16.3L34.3,14c-0.4-2.8-0.8-5.3-1.1-7.4H21v34.8h8.2l0-23l3.5,23h5.8l3.3-23.5l0,23.5H50V6.5H37.8z">
   </path>
   <path d="M53.9,41.4V6.5H69c3.4,0,6.2,2.7,6.2,6.1v22.5c0,3.4-2.8,6.1-6.2,6.1H53.9z M65.2,12.8c-0.4-0.2-1.1-0.3-2.2-0.3v22.8    c1.4,0,2.3-0.3,2.6-0.8c0.3-0.5,0.5-1.9,0.5-4.3V16.8c0-1.6-0.1-2.6-0.2-3C65.8,13.3,65.6,13,65.2,12.8z">
   </path>
   <path d="M93.4,15.3H94c3.5,0,6.3,2.7,6.3,6.1v14c0,3.4-2.8,6.1-6.3,6.1h-0.6c-2.1,0-4-1-5.1-2.6l-0.6,2.1H79V6.5h9.3v11.2    C89.5,16.2,91.3,15.3,93.4,15.3z M91.4,32.2V24c0-1.4-0.1-2.3-0.3-2.7s-0.9-0.7-1.4-0.7s-1.3,0.2-1.5,0.6V24v8.5v2.7    c0.2,0.4,0.9,0.6,1.5,0.6c0.5,0,1.3-0.2,1.4-0.6C91.4,34.8,91.4,33.8,91.4,32.2z">
   </path>
  </g>
 </g>
</svg>
