<svg xmlns="http://www.w3.org/2000/svg" fill="none" viewBox="-393.33 -393.33 1320 1320">
<path d="M441.028 124.329C441.028 106.604 426.662 92.2913 409.003 92.2913C391.343 92.2913 376.965 106.604 376.965 124.329C376.965 141.989 391.343 156.301 409.003 156.301C426.662 156.301 441.028 141.989 441.028 124.329Z" fill="url(#paint0_linear_666_5)"/>
<path d="M483.701 374.409C482.515 400.412 478.166 414.539 474.556 423.922C469.705 436.363 463.92 445.259 454.537 454.589C445.259 463.92 436.363 469.692 423.922 474.489C414.539 478.153 400.359 482.515 374.357 483.754C346.247 484.993 337.918 485.257 266.634 485.257C195.416 485.257 187.02 484.993 158.91 483.754C132.909 482.515 118.794 478.153 109.41 474.489C96.9037 469.692 88.0743 463.92 78.7437 454.589C69.3469 445.259 63.5617 436.363 58.7778 423.922C55.1661 414.539 50.7519 400.412 49.631 374.409C48.2611 346.299 48.0101 337.838 48.0101 266.699C48.0101 195.415 48.2611 187.02 49.631 158.909C50.7519 132.908 55.1661 118.794 58.7778 109.331C63.5617 96.9034 69.3469 88.0601 78.7437 78.7295C88.0743 69.4128 96.9037 63.6266 109.41 58.7775C118.794 55.1006 132.909 50.804 158.91 49.5655C187.02 48.326 195.416 48.0097 266.634 48.0097C337.918 48.0097 346.247 48.326 374.357 49.5655C400.359 50.804 414.539 55.1006 423.922 58.7775C436.363 63.6266 445.259 69.4128 454.537 78.7295C463.92 88.0601 469.705 96.9034 474.556 109.331C478.166 118.794 482.515 132.908 483.701 158.909C485.006 187.02 485.322 195.415 485.322 266.699C485.322 337.838 485.006 346.299 483.701 374.409ZM531.712 156.722C530.408 128.308 525.926 108.896 519.271 91.988C512.498 74.4467 503.417 59.581 488.551 44.7153C473.752 29.9159 458.886 20.8354 441.345 13.9827C424.371 7.39299 405.024 2.85913 376.597 1.62066C348.17 0.249731 339.091 -0.000351726 266.634 -0.000351726C194.242 -0.000351726 185.097 0.249731 156.67 1.62066C128.309 2.85913 108.975 7.39299 91.9222 13.9827C74.4471 20.8354 59.5814 29.9159 44.7819 44.7153C29.9162 59.581 20.8357 74.4467 13.9959 91.988C7.40616 108.896 2.92569 128.308 1.55477 156.722C0.316291 185.149 0 194.242 0 266.699C0 339.091 0.316291 348.17 1.55477 376.597C2.92569 404.958 7.40616 424.357 13.9959 441.345C20.8357 458.82 29.9162 473.752 44.7819 488.551C59.5814 503.351 74.4471 512.497 91.9222 519.337C108.975 525.926 128.309 530.407 156.67 531.712C185.097 533.017 194.242 533.333 266.634 533.333C339.091 533.333 348.17 533.017 376.597 531.712C405.024 530.407 424.371 525.926 441.345 519.337C458.886 512.497 473.752 503.351 488.551 488.551C503.417 473.752 512.498 458.82 519.271 441.345C525.926 424.357 530.408 404.958 531.712 376.597C533.017 348.17 533.333 339.091 533.333 266.699C533.333 194.242 533.017 185.149 531.712 156.722Z" fill="url(#paint1_linear_666_5)"/>
<path d="M266.634 355.512C217.569 355.512 177.756 315.764 177.756 266.699C177.756 217.555 217.569 177.756 266.634 177.756C315.713 177.756 355.578 217.555 355.578 266.699C355.578 315.764 315.713 355.512 266.634 355.512ZM266.634 129.68C191.001 129.68 129.746 191.066 129.746 266.699C129.746 342.267 191.001 403.588 266.634 403.588C342.267 403.588 403.588 342.267 403.588 266.699C403.588 191.066 342.267 129.68 266.634 129.68Z" fill="url(#paint2_linear_666_5)"/>
<defs>
<linearGradient id="paint0_linear_666_5" x1="4.80935" y1="527.819" x2="488.911" y2="43.7191" gradientUnits="userSpaceOnUse">
<stop stop-color="#FFD521"/>
<stop offset="0.05" stop-color="#FFD521"/>
<stop offset="0.501119" stop-color="#F50000"/>
<stop offset="0.95" stop-color="#B900B4"/>
<stop offset="0.950079" stop-color="#B900B4"/>
<stop offset="1" stop-color="#B900B4"/>
</linearGradient>
<linearGradient id="paint1_linear_666_5" x1="4.81059" y1="528.483" x2="489.31" y2="43.984" gradientUnits="userSpaceOnUse">
<stop stop-color="#FFD521"/>
<stop offset="0.05" stop-color="#FFD521"/>
<stop offset="0.501119" stop-color="#F50000"/>
<stop offset="0.95" stop-color="#B900B4"/>
<stop offset="0.950079" stop-color="#B900B4"/>
<stop offset="1" stop-color="#B900B4"/>
</linearGradient>
<linearGradient id="paint2_linear_666_5" x1="4.93664" y1="528.496" x2="489.319" y2="44.1138" gradientUnits="userSpaceOnUse">
<stop stop-color="#FFD521"/>
<stop offset="0.05" stop-color="#FFD521"/>
<stop offset="0.501119" stop-color="#F50000"/>
<stop offset="0.95" stop-color="#B900B4"/>
<stop offset="0.950079" stop-color="#B900B4"/>
<stop offset="1" stop-color="#B900B4"/>
</linearGradient>
</defs>
</svg>
