<svg xmlns="http://www.w3.org/2000/svg" viewBox="-175.01 -175.01 750.02 750.02"><path fill="#fff" fill-rule="evenodd" stroke="#fff" stroke-miterlimit="2.613" stroke-width=".35581425" d="M 200.003 0.177907 C 310.06 0.177907 399.828 89.9401 399.828 200.003 C 399.828 310.06 310.06 399.822 200.003 399.822 C 89.9399 399.822 0.177717 310.06 0.177717 200.003 C 0.177717 89.9401 89.9399 0.177907 200.003 0.177907" /><path fill="#bfeafb" fill-rule="evenodd" d="M 81.4149 171.526 L 81.6413 169.935 L 82.547 165.723 L 84.5072 159.267 L 87.9101 150.876 L 93.1244 140.907 L 100.525 129.695 L 110.495 117.572 L 123.382 104.885 L 138.94 93.745 L 156.168 85.8912 L 174.36 81.0521 L 192.837 78.9819 L 210.867 79.4219 L 227.79 82.1325 L 242.89 86.8422 L 255.479 93.2922 L 265.351 99.9556 L 273.011 105.513 L 278.73 110.035 L 282.78 113.574 L 285.439 116.213 L 286.991 118.005 L 287.722 119.04 L 287.904 119.364 L 288.654 120.328 L 290.64 122.915 L 293.538 126.784 L 296.961 131.5 L 300.577 136.695 L 303.999 141.987 L 306.891 146.955 L 308.884 151.245 L 311.543 159.448 L 313.658 167.606 L 314.46 171.086 L 315.062 173.855 L 315.437 175.686 L 315.567 176.352 Z" /><path fill="#bfeafb" fill-rule="evenodd" stroke="#1f4fa2" stroke-miterlimit="2.613" stroke-width="1.1774217" d="M 106.68 281.02 L 107.443 281.434 L 109.591 282.527 L 112.884 284.099 L 117.122 285.904 L 127.524 289.365 L 139.007 291.151 L 149.986 289.922 L 159.276 286.752 L 162.918 285.005 L 165.7 283.478 L 167.472 282.385 L 168.1 281.971 L 168.96 282.411 L 171.309 283.537 L 174.841 285.135 L 179.182 286.927 L 189.022 290.122 L 198.144 291.151 L 207.253 289.236 L 217.092 285.963 L 221.433 284.287 L 224.953 282.864 L 227.314 281.861 L 228.174 281.492 L 228.88 281.945 L 230.846 283.123 L 233.861 284.779 L 237.71 286.616 L 242.193 288.402 L 247.084 289.838 L 252.182 290.685 L 257.267 290.672 L 267.741 288.699 L 277.768 285.775 L 281.98 284.352 L 285.299 283.123 L 287.479 282.288 L 288.262 281.971 L 286.722 283.75 L 282.181 288.447 L 274.754 295.091 L 264.597 302.738 L 251.82 310.404 L 236.552 317.145 L 218.936 321.997 L 199.082 323.989 L 178.503 322.34 L 160.227 317.559 L 144.409 310.688 L 131.186 302.763 L 120.66 294.8 L 112.975 287.832 L 108.278 282.883 Z" /><path fill="none" stroke="#1f4fa2" stroke-miterlimit="2.613" stroke-width="2.3548434" d="M 301.621 139.644 L 301.091 139.896 L 299.596 140.614 L 297.241 141.785 L 294.175 143.351 L 286.36 147.55 L 277.122 152.932 L 267.456 159.22 L 258.36 166.142 L 250.817 173.395 L 245.816 180.705 M 253.806 92.9418 L 224.836 146.896 M 196.235 79.2785 L 196.235 146.404 M 92.9974 141.106 L 94.7247 141.818 L 96.2774 142.523 L 98.7163 143.649 L 101.906 145.182 L 109.999 149.342 L 119.509 154.802 L 129.407 161.316 L 138.645 168.672 L 146.163 176.662 L 150.93 185.039" /><path fill="#1f4fa2" fill-rule="evenodd" stroke="#4c416e" stroke-miterlimit="2.613" stroke-width=".35581425" d="M 74.6246 202.896 L 74.0359 203.491 L 72.5285 205.167 L 70.4454 207.806 L 68.1552 211.274 L 66.0204 215.447 L 64.3966 220.195 L 63.6461 225.396 L 64.1313 230.915 L 65.9298 235.98 L 68.634 239.868 L 71.9528 242.741 L 75.5756 244.753 L 79.2049 246.06 L 82.5237 246.823 L 85.2279 247.185 L 87.0263 247.334 L 93.6316 246.829 L 100.243 245.037 L 103.044 243.847 L 105.244 242.579 L 106.648 241.292 L 107.055 240.088 L 107.625 240.994 L 109.708 243.918 L 113.68 247.949 L 119.929 252.154 L 126.405 255.498 L 132.169 257.672 L 135.327 258.312 L 138.923 258.662 L 143.187 258.707 L 148.33 258.448 L 151.681 258.092 L 153.602 257.575 L 155.071 256.779 L 157.135 255.544 L 158.752 257.019 L 162.627 260.894 L 168.676 265.552 L 176.853 269.369 L 191.733 272.474 L 206.709 272.927 L 214.363 271.898 L 221.66 269.964 L 227.657 267.693 L 231.409 265.675 L 233.247 266.043 L 236.934 267.363 L 241.689 268.443 L 246.768 268.101 L 251.71 265.836 L 256.006 262.369 L 258.904 258.254 L 259.654 254.094 L 260.069 253.512 L 261.763 254.334 L 264.655 255.524 L 268.705 256.022 L 274.204 255.524 L 279.082 254.191 L 283.319 251.61 L 286.826 247.334 L 288.145 244.119 L 288.747 239.603 L 288.217 235.469 L 287.078 232.959 L 285.92 231.723 L 285.402 231.393 L 285.985 231.413 L 287.544 231.458 L 289.879 231.484 L 292.739 231.458 L 299.092 231.096 L 304.714 230.074 L 308.692 228.76 L 311.623 227.583 L 314.003 226.289 L 316.287 224.639 L 317.788 222.88 L 319.865 219.386 L 321.954 214.321 L 323.546 207.852 L 324.536 207.198 L 326.877 206.144 L 329.866 204.397 L 332.816 201.706 L 334.123 199.448 L 335.171 196.11 L 335.715 192.021 L 335.482 187.454 L 333.211 181.01 L 329.627 176.313 L 326.334 173.454 L 324.878 172.477 L 323.85 172.108 L 321.062 171.274 L 316.934 170.446 L 311.882 170.064 L 307.036 170.672 L 303.348 171.998 L 301.007 173.331 L 300.185 173.939 L 299.965 172.665 L 298.949 169.754 L 296.62 166.577 L 292.441 164.513 L 288.779 164.5 L 285.616 165.464 L 283.378 166.616 L 282.543 167.179 L 281.851 166.021 L 279.923 163.012 L 276.908 158.82 L 273.001 154.137 L 263.588 144.782 L 252.021 137.232 L 239.936 131.998 L 227.224 128.544 L 224.998 128.259 L 221.66 128.117 L 216.853 128.291 L 210.287 129.016 L 205.37 129.967 L 201.534 131.086 L 199.024 132.024 L 198.144 132.406 L 196.882 131.332 L 192.774 128.913 L 189.481 127.541 L 185.27 126.292 L 180.069 125.283 L 173.819 124.675 L 162.071 125.555 L 153.906 128.421 L 149.139 131.468 L 147.586 132.891 L 146.719 133.519 L 144.494 135.427 L 141.55 138.597 L 138.522 143.035 L 136.252 147.693 L 134.951 151.368 L 134.369 153.768 L 134.246 154.622 L 133.218 154.648 L 130.785 154.803 L 127.79 155.23 L 125.183 156.071 L 123.002 157.436 L 121.003 159.034 L 119.541 160.354 L 118.978 160.897 L 118.163 160.696 L 116.106 160.244 L 113.344 159.758 L 110.387 159.448 L 104.397 159.519 L 99.3052 160.412 L 94.0327 162.029 L 87.4986 164.274 L 80.874 168.246 L 75.9896 173.881 L 72.8132 179.419 L 71.2799 183.113 L 70.8012 186.076 L 70.9888 190.475 L 72.1533 196.155 Z" /><path fill="none" stroke="#1f4fa2" stroke-miterlimit="2.613" stroke-width="3.5322651000000005" d="M 318.791 201.22 C 318.791 133.796 264.494 78.807 197.918 78.807 C 131.335 78.807 77.0379 133.796 77.0379 201.22 C 77.0379 268.631 131.335 323.62 197.918 323.62 C 264.494 323.62 318.791 268.631 318.791 201.22 Z" /><path fill="#fff" fill-rule="evenodd" stroke="#1f4fa2" stroke-miterlimit="2.613" stroke-width="1.5267666" d="M 99.419 99.084 L 139.477 99.084 L 180.493 147.371 L 170.957 147.371 L 217.679 199.534 L 205.283 199.534 L 252.969 250.706 L 245.348 252.647 L 292.076 302.869 L 215.77 253.604 L 236.757 242.982 L 179.535 203.383 L 201.473 191.803 L 142.337 152.21 L 163.33 140.617 Z" /><path fill="#ce0f3e" fill-rule="evenodd" stroke="#ed1c24" stroke-miterlimit="2.613" stroke-width=".35581425" d="M 201.098 351.879 L 205.297 364.979 L 218.869 364.979 L 207.891 373.073 L 212.076 386.173 L 201.098 378.08 L 190.132 386.173 L 194.331 373.073 L 183.353 364.979 L 196.919 364.979 Z" /><path fill="#1f4fa2" fill-rule="evenodd" stroke="#485683" stroke-miterlimit="2.613" stroke-width=".35581425" d="M 153.423 351.879 L 156.069 360.554 L 164.628 360.554 L 157.706 365.917 L 160.345 374.586 L 153.423 369.223 L 146.494 374.586 L 149.14 365.917 L 142.218 360.554 L 150.777 360.554 Z" /><path fill="#1f4fa2" fill-rule="evenodd" stroke="#485683" stroke-miterlimit="2.613" stroke-width=".35581425" d="M 244.028 351.879 L 246.661 360.554 L 255.233 360.554 L 248.298 365.917 L 250.944 374.586 L 244.028 369.223 L 237.093 374.586 L 239.745 365.917 L 232.81 360.554 L 241.382 360.554 Z" /><path fill="#ce0f3e" fill-rule="evenodd" d="M 126.522 338.555 L 105.05 369.213 L 99.0337 364.995 L 100.826 335.734 L 86.4832 356.203 L 80.7319 352.179 L 102.204 321.521 L 108.414 325.869 L 106.771 354.521 L 120.771 334.525 Z" /><path fill="#ce0f3e" fill-rule="evenodd" d="M 71.3634 310.743 L 64.0401 323.623 L 77.9298 318.564 Z M 73.7635 290.559 L 79.049 296.866 L 74.6369 304.83 L 84.2568 316.294 L 92.7575 313.195 L 97.9071 319.334 L 59.8674 332.228 L 54.7242 326.101 Z" /><path fill="#ce0f3e" fill-rule="evenodd" d="M 69.7163 283.116 L 42.7844 298.662 L 48.3351 308.282 L 42.8556 311.452 L 27.989 285.691 L 33.4621 282.521 L 39.0063 292.115 L 65.9382 276.569 Z" /><path fill="#ce0f3e" fill-rule="evenodd" d="M 58.9022 262.652 L 23.9677 276.063 L 21.2571 269.005 L 56.198 255.6 Z" /><path fill="#ce0f3e" fill-rule="evenodd" d="M 33.5954 246.263 C 37.7681 245.525 40.7634 243.999 42.5813 241.696 C 44.3927 239.386 45.0397 236.747 44.5157 233.784 C 43.9916 230.814 42.4972 228.569 40.0195 227.043 C 37.5482 225.516 34.1776 225.134 29.9014 225.885 C 25.6769 226.629 22.6881 228.11 20.9349 230.329 C 19.1882 232.554 18.58 235.194 19.1235 238.26 C 19.6669 241.327 21.1484 243.617 23.5873 245.118 C 26.0198 246.625 29.3515 247.007 33.5954 246.263 M 35.1998 253.884 C 31.4476 254.544 28.1935 254.537 25.4505 253.864 C 23.4256 253.353 21.543 252.512 19.7898 251.322 C 18.0431 250.138 16.6586 248.747 15.63 247.143 C 14.2585 245.021 13.301 242.459 12.7706 239.457 C 11.8131 234.029 12.7317 229.384 15.5265 225.535 C 18.3213 221.673 22.7204 219.221 28.7175 218.16 C 34.6693 217.112 39.6119 217.908 43.5388 220.547 C 47.4786 223.2 49.9176 227.224 50.8686 232.639 C 51.839 238.118 50.9333 242.77 48.1644 246.599 C 45.3826 250.423 41.0675 252.849 35.1998 253.884" /><path fill="#ce0f3e" fill-rule="evenodd" d="M 46.6311 208.767 L 9.30295 206.16 L 9.81403 198.824 L 35.8143 185.283 L 10.8815 183.537 L 11.3667 176.537 L 48.7078 179.144 L 48.1773 186.707 L 22.7786 200.059 L 47.1228 201.767 Z" /><path fill="#ce0f3e" fill-rule="evenodd" d="M 42.7877 147.281 L 27.9729 147.643 L 39.4625 156.94 Z M 61.3159 138.948 L 58.6441 146.718 L 49.5417 147.048 L 44.6703 161.184 L 51.696 166.883 L 49.0888 174.459 L 18.45 148.491 L 21.0507 140.935 Z" /><path fill="#ce0f3e" fill-rule="evenodd" d="M 63.4145 135.009 L 32.284 114.786 L 36.392 108.446 L 62.2435 125.234 L 72.4716 109.474 L 77.7635 112.91 Z" /><path fill="#ce0f3e" fill-rule="evenodd" d="M 104.359 84.2446 L 76.4826 57.7138 L 82.9649 53.5022 L 101.707 71.9917 L 93.4387 46.703 L 100.982 41.8057 L 120.726 60.1592 L 111.294 35.1099 L 117.673 30.963 L 130.443 67.3014 L 123.715 71.6747 L 102.231 52.2601 L 111.236 79.7807 Z" /><path fill="#ce0f3e" fill-rule="evenodd" d="M 142.436 61.5442 L 132.745 25.3999 L 159.56 18.2125 L 161.191 24.3325 L 141.692 29.5597 L 143.833 37.5688 L 161.986 32.7103 L 163.617 38.798 L 145.47 43.6629 L 148.103 53.5028 L 168.3 48.088 L 169.931 54.1756 Z" /><path fill="#ce0f3e" fill-rule="evenodd" d="M 195.149 36.6948 L 189.035 23.1997 L 184.96 37.4064 Z M 210.061 50.4939 L 201.864 51.0697 L 198.015 42.8213 L 183.084 43.8628 L 180.593 52.5512 L 172.597 53.1205 L 184.533 14.7637 L 192.503 14.2073 Z" /><path fill="#ce0f3e" fill-rule="evenodd" d="M 218.626 52.5163 L 222.411 21.651 L 211.387 20.2989 L 212.163 14.0172 L 241.683 17.64 L 240.913 23.9218 L 229.915 22.5761 L 226.124 53.4414 Z" /><path fill="#ce0f3e" fill-rule="evenodd" d="M 242.011 56.5829 L 255.422 21.6419 L 262.474 24.3526 L 257.201 38.1 L 271.02 43.4113 L 276.299 29.651 L 283.357 32.3681 L 269.939 67.3026 L 262.888 64.5984 L 268.749 49.3178 L 254.93 44.013 L 249.063 59.2871 Z" /><path fill="#ce0f3e" fill-rule="evenodd" d="M 276.706 71.5148 L 298.171 40.8501 L 320.898 56.7712 L 317.275 61.9596 L 300.727 50.3794 L 295.972 57.1723 L 311.362 67.9502 L 307.746 73.1127 L 292.349 62.3348 L 286.514 70.6867 L 303.638 82.6744 L 300.022 87.837 Z" /><path fill="#ce0f3e" fill-rule="evenodd" d="M 326.066 84.0486 L 329.656 88.3313 C 331.992 91.1067 333.558 92.7434 334.373 93.2351 C 335.194 93.7267 336.048 93.9338 336.954 93.8432 C 337.853 93.7526 338.739 93.3451 339.593 92.627 C 340.564 91.8118 341.12 90.8996 341.288 89.884 C 341.444 88.8812 341.211 87.8332 340.583 86.7657 C 340.247 86.2352 339.102 84.8055 337.129 82.4571 L 333.344 77.9415 Z M 304.659 92.1418 L 333.331 68.0822 L 343.553 80.264 C 346.127 83.3305 347.738 85.7759 348.385 87.5873 C 349.039 89.4117 349.052 91.2943 348.437 93.2351 C 347.822 95.1759 346.664 96.8579 344.976 98.2747 C 342.822 100.086 340.512 100.94 338.047 100.85 C 335.589 100.765 333.111 99.6139 330.64 97.4078 C 330.963 99.271 331.028 100.972 330.834 102.525 C 330.64 104.071 330.012 106.471 328.945 109.719 L 326.286 117.922 L 320.483 110.993 L 323.207 101.574 C 324.19 98.2165 324.74 96.0169 324.863 94.9883 C 324.979 93.9532 324.895 93.0345 324.597 92.2453 C 324.293 91.4495 323.588 90.3886 322.469 89.0559 L 321.492 87.8849 L 309.517 97.9254 Z" /><path fill="#ce0f3e" fill-rule="evenodd" d="M 354.088 142.273 L 356.682 149.189 C 354.418 150.256 352.891 151.595 352.128 153.2 C 351.358 154.804 351.267 156.719 351.869 158.938 C 352.497 161.293 353.467 162.923 354.78 163.855 C 356.093 164.773 357.42 165.065 358.752 164.702 C 359.606 164.476 360.266 164.029 360.732 163.37 C 361.198 162.703 361.482 161.688 361.592 160.322 C 361.657 159.391 361.664 157.295 361.605 154.054 C 361.528 149.881 361.987 146.814 362.97 144.861 C 364.374 142.111 366.496 140.352 369.362 139.582 C 371.199 139.09 373.063 139.148 374.945 139.763 C 376.828 140.377 378.445 141.555 379.81 143.295 C 381.182 145.042 382.23 147.293 382.98 150.075 C 384.196 154.61 384.119 158.291 382.741 161.125 C 381.363 163.945 379.034 165.86 375.741 166.869 L 373.464 159.65 C 375.236 158.841 376.394 157.812 376.938 156.57 C 377.475 155.322 377.468 153.672 376.918 151.615 C 376.349 149.499 375.469 147.953 374.279 146.989 C 373.509 146.368 372.655 146.174 371.723 146.433 C 370.863 146.659 370.229 147.216 369.815 148.108 C 369.291 149.228 369.084 151.679 369.194 155.458 C 369.31 159.229 369.142 162.089 368.709 164.029 C 368.269 165.97 367.402 167.633 366.108 169.011 C 364.814 170.389 363.016 171.385 360.732 172 C 358.655 172.556 356.566 172.498 354.45 171.831 C 352.328 171.165 350.549 169.897 349.107 168.027 C 347.67 166.164 346.525 163.661 345.678 160.51 C 344.455 155.943 344.578 152.152 346.027 149.137 C 347.483 146.122 350.174 143.839 354.088 142.273" /><path fill="#ce0f3e" fill-rule="evenodd" d="M 351.361 181.388 L 388.689 178.781 L 390.636 206.463 L 384.309 206.903 L 382.906 186.758 L 374.625 187.34 L 375.938 206.082 L 369.65 206.528 L 368.337 187.78 L 358.173 188.491 L 359.635 209.349 L 353.341 209.788 Z" /><path fill="#ce0f3e" fill-rule="evenodd" d="M 372.321 227.604 L 371.351 233.109 C 370.717 236.68 370.477 238.932 370.62 239.876 C 370.768 240.814 371.163 241.61 371.816 242.238 C 372.463 242.872 373.337 243.286 374.443 243.48 C 375.685 243.7 376.746 243.544 377.626 243.02 C 378.506 242.49 379.153 241.642 379.567 240.472 C 379.754 239.883 380.123 238.078 380.647 235.057 L 381.676 229.254 Z M 352.357 216.412 L 389.219 222.907 L 386.463 238.576 C 385.764 242.509 384.93 245.317 383.953 246.98 C 382.976 248.655 381.546 249.872 379.664 250.648 C 377.781 251.418 375.75 251.618 373.57 251.23 C 370.801 250.745 368.666 249.529 367.152 247.581 C 365.638 245.641 364.927 243.014 365.03 239.689 C 363.807 241.138 362.539 242.283 361.233 243.13 C 359.926 243.978 357.681 245.045 354.504 246.313 L 346.521 249.548 L 348.093 240.646 L 357.053 236.68 C 360.256 235.27 362.3 234.287 363.167 233.718 C 364.034 233.142 364.674 232.488 365.095 231.744 C 365.515 231.013 365.871 229.784 366.169 228.076 L 366.434 226.562 L 351.056 223.852 Z" /><path fill="#ce0f3e" fill-rule="evenodd" d="M 341.319 261.351 L 380.898 265.045 L 377.437 272.478 L 348.319 269.354 L 369.558 289.37 L 366.168 296.641 L 337.91 268.668 Z" /><path fill="#ce0f3e" fill-rule="evenodd" d="M 330.212 283.632 L 361.608 304.017 L 357.487 310.35 L 326.097 289.965 Z" /><path fill="#ce0f3e" fill-rule="evenodd" d="M 315.867 323.23 L 309.107 326.885 C 306.952 323.236 306.066 319.788 306.454 316.528 C 306.842 313.274 308.434 310.201 311.222 307.309 C 314.677 303.731 318.733 301.978 323.397 302.036 C 328.068 302.095 332.513 304.165 336.75 308.26 C 341.233 312.588 343.595 317.104 343.84 321.813 C 344.086 326.516 342.385 330.754 338.743 334.525 C 335.566 337.825 332.008 339.552 328.075 339.733 C 325.739 339.85 323.203 339.17 320.454 337.702 L 324.368 331.077 C 326.076 332.112 327.809 332.507 329.595 332.281 C 331.381 332.048 332.972 331.213 334.363 329.771 C 336.291 327.765 337.138 325.462 336.905 322.829 C 336.679 320.209 334.952 317.343 331.749 314.251 C 328.34 310.958 325.325 309.23 322.699 309.062 C 320.072 308.894 317.814 309.78 315.919 311.747 C 314.528 313.19 313.79 314.878 313.693 316.806 C 313.609 318.734 314.34 320.869 315.867 323.23" /><path fill="#ce0f3e" fill-rule="evenodd" d="M 296.019 323.498 L 316.404 354.894 L 293.127 370.006 L 289.679 364.695 L 306.616 353.697 L 302.1 346.736 L 286.334 356.97 L 282.906 351.685 L 298.665 341.444 L 293.114 332.904 L 275.576 344.297 L 272.141 339.005 Z" /></svg>
