<svg xmlns="http://www.w3.org/2000/svg" xmlns:xlink="http://www.w3.org/1999/xlink" x="0px" y="0px" viewBox="90 90 220 220">
<path fill="#FFFFFF" d="M122.148,189.481c-6.333,0-11.481,5.148-11.481,11.481v26.556h5.444v-14.74l2,2.11l8-3.147  c4.556-1.778,7.519-5.89,7.519-10.778C133.63,194.63,128.482,189.481,122.148,189.481z M124.186,206.926l-8.074,3.148v-9.111  c0-3.667,2.741-6.296,6.037-6.296c3.296,0,6.037,2.666,6.037,6.296C128.186,203.259,127.075,205.778,124.186,206.926z   M218.223,189.481c-6.333,0-11.481,5.148-11.481,11.481s5.148,11.481,11.481,11.481s11.481-5.148,11.481-11.481  S224.556,189.481,218.223,189.481z M218.223,207.259c-3.481,0-6.037-2.777-6.037-6.296s2.63-6.296,6.037-6.296  c3.481,0,6.037,2.777,6.037,6.296S221.704,207.259,218.223,207.259z M243.075,194.667c2.369,0,4.295,1.296,5.296,3.222l4.259-3.259  c-2.074-3.074-5.555-5.111-9.555-5.111c-6.334,0-11.482,5.148-11.482,11.481s5.148,11.481,11.482,11.481  c3.963,0,7.48-2.037,9.555-5.111l-4.259-3.26c-1.001,1.927-2.927,3.223-5.296,3.223c-3.482,0-6.037-2.777-6.037-6.296  S239.667,194.667,243.075,194.667L243.075,194.667z M196.63,194.667c2.371,0,4.297,1.296,5.297,3.222l4.259-3.259  c-2.074-3.074-5.556-5.111-9.556-5.111c-6.333,0-11.481,5.148-11.481,11.481s5.148,11.481,11.481,11.481  c3.963,0,7.482-2.037,9.556-5.111l-4.259-3.26c-1,1.927-2.926,3.223-5.297,3.223c-3.481,0-6.037-2.777-6.037-6.296  S193.186,194.667,196.63,194.667z M177.593,192.222c-1.852-1.926-4.296-2.74-6.852-2.74c-5.334,0-10.74,4.852-10.74,11.481  s5.406,11.481,10.74,11.481c2.556,0,5-0.814,6.852-2.74v2.074h5.445v-21.594h-5.445V192.222z M171.556,207.259  c-3.48,0-6.111-2.777-6.111-6.296s2.704-6.296,6.111-6.296c3.482,0,6.037,2.777,6.037,6.296S175.038,207.259,171.556,207.259z   M267.778,200.185h-2.444l9.444-10.037h-7l-7.63,8.223v-20h-5.444v33.408h5.444v-6.148l3-3.186l6.407,9.334h6.593L267.778,200.185z   M146.889,189.481c-6.333,0-11.481,5.148-11.481,11.481s5.148,11.481,11.481,11.481c3.778,0,7.333-1.814,9.371-4.629l-4.371-3.037  c-0.519,0.852-2.185,2.48-5,2.48c-2.592,0-4.704-1.555-5.592-3.814h16.556c0.186-0.814,0.26-1.629,0.26-2.481  C158.148,194.63,153.223,189.481,146.889,189.481z M141.334,198.481c0.889-2.26,3-3.814,5.555-3.814  c2.593,0,4.556,1.555,5.371,3.814H141.334z"/>
<path fill="#069DE0" d="M286.038,208.519c-1.815,0-3.297,1.481-3.297,3.297c0,1.814,1.481,3.295,3.297,3.295  c1.814,0,3.296-1.48,3.296-3.295C289.334,210,287.853,208.519,286.038,208.519z"/>
<path fill="#6E55DC" d="M286.038,199.519c-1.815,0-3.297,1.481-3.297,3.297c0,1.814,1.481,3.295,3.297,3.295  c1.814,0,3.296-1.48,3.296-3.295C289.297,200.963,287.853,199.519,286.038,199.519z"/>
<path fill="#05AC3F" d="M286.038,217.519c-1.815,0-3.297,1.481-3.297,3.297c0,1.814,1.481,3.295,3.297,3.295  c1.814,0,3.296-1.48,3.296-3.295C289.334,219,287.853,217.519,286.038,217.519z"/>
<path fill="#EF1541" d="M286.038,190.481c-1.815,0-3.297,1.481-3.297,3.297c0,1.814,1.481,3.296,3.297,3.296  c1.814,0,3.296-1.481,3.296-3.296C289.297,191.963,287.853,190.481,286.038,190.481z"/>
<path fill="#FF7112" d="M286.038,181.481c-1.815,0-3.297,1.481-3.297,3.297c0,1.814,1.481,3.296,3.297,3.296  c1.814,0,3.296-1.481,3.296-3.296C289.297,182.963,287.853,181.481,286.038,181.481z"/>
<path fill="#FCCC12" d="M286.038,172.481c-1.815,0-3.297,1.481-3.297,3.297c0,1.814,1.481,3.296,3.297,3.296  c1.814,0,3.296-1.481,3.296-3.296C289.297,173.963,287.853,172.481,286.038,172.481z"/>
</svg>
