<svg xmlns="http://www.w3.org/2000/svg" xmlns:xlink="http://www.w3.org/1999/xlink" x="0px" y="0px" style="enable-background:new -40.04 -50.7 175 175;" viewBox="-40.04 -50.7 175 175">
 <style type="text/css">
  .st0{fill:#0170d1;}
 </style>
 <g>
  <g>
   <path class="st0" d="M1.9,53.6c-3.6,2.4-2.4,6.9,5.2,9c7.8,2.6,16.4,3.3,24.7,1.9c0.5,0,0.9-0.2,1.2-0.2v-8.1l-8.1,2.6    c-3.1,0.9-6.2,1.2-9.3,0.5c-2.4-0.7-1.9-2.1,0.9-3.3L33,50.3v-8.8l-22.8,7.8C7.4,50.3,4.5,51.7,1.9,53.6z M57,18v23    c9.7,4.7,17.3,0,17.3-12.3c0-12.6-4.5-18.3-17.6-22.8c-6.9-2.4-14-4.5-21.1-5.9v68.6l16.6,5V15.9c0-2.6,0-4.5,1.9-3.8    C56.7,12.8,57,15.4,57,18z M87.8,48.2c-6.9-2.4-14.2-3.3-21.4-2.6c-3.8,0.2-7.4,1.2-10.7,2.4l-0.7,0.2v9.3l15.4-5.7    c3.1-0.9,6.2-1.2,9.3-0.5c2.4,0.7,1.9,2.1-0.9,3.3l-23.7,8.8v9l32.7-12.1c2.4-0.9,4.5-2.1,6.4-4C95.9,53.9,95.2,50.5,87.8,48.2z">
   </path>
  </g>
 </g>
</svg>