<svg xmlns="http://www.w3.org/2000/svg" x="0px" y="0px" viewBox="-159.3 -159.3 534.6 534.6" style="enable-background:new -159.3 -159.3 534.6 534.6;"><style type="text/css">
  .st0{fill:#FF4500;}
	.st1{fill:url(#SVGID_1_);}
	.st2{fill:url(#SVGID_2_);}
	.st3{fill:url(#SVGID_3_);}
	.st4{fill:url(#SVGID_4_);}
	.st5{fill:url(#SVGID_5_);}
	.st6{fill:#FFC49C;}
	.st7{fill:url(#SVGID_6_);}
	.st8{fill:url(#SVGID_7_);}
	.st9{fill:url(#SVGID_8_);}
	.st10{fill:#842123;}
 </style><g><g><path class="st0" d="M108,0L108,0C48.3,0,0,48.3,0,108l0,0c0,29.8,12.1,56.8,31.6,76.4l-20.6,20.6C7,209,9.9,216,15.6,216H108l0,0    c59.6,0,108-48.4,108-108l0,0C216,48.3,167.6,0,108,0z" /><radialGradient id="SVGID_1_" cx="275.75" cy="-346.3659" r="50.98" gradientTransform="matrix(1 0 0 -0.87 -106 -209.493)" gradientUnits="userSpaceOnUse"><stop offset="0" style="stop-color:#FEFFFF" /><stop offset="0.4" style="stop-color:#FEFFFF" /><stop offset="0.51" style="stop-color:#F9FCFC" /><stop offset="0.62" style="stop-color:#EDF3F5" /><stop offset="0.7" style="stop-color:#DEE9EC" /><stop offset="0.72" style="stop-color:#D8E4E8" /><stop offset="0.76" style="stop-color:#CCD8DF" /><stop offset="0.8" style="stop-color:#C8D5DD" /><stop offset="0.83" style="stop-color:#CCD6DE" /><stop offset="0.85" style="stop-color:#D8DBE2" /><stop offset="0.88" style="stop-color:#EDE3E9" /><stop offset="0.9" style="stop-color:#FFEBEF" /></radialGradient><circle class="st1" cx="169.2" cy="107" r="25.2" /><radialGradient id="SVGID_2_" cx="153.31" cy="-287.2627" r="50.98" gradientTransform="matrix(1 0 0 -1 -106 -195.0727)" gradientUnits="userSpaceOnUse"><stop offset="0" style="stop-color:#FEFFFF" /><stop offset="0.4" style="stop-color:#FEFFFF" /><stop offset="0.51" style="stop-color:#F9FCFC" /><stop offset="0.62" style="stop-color:#EDF3F5" /><stop offset="0.7" style="stop-color:#DEE9EC" /><stop offset="0.72" style="stop-color:#D8E4E8" /><stop offset="0.76" style="stop-color:#CCD8DF" /><stop offset="0.8" style="stop-color:#C8D5DD" /><stop offset="0.83" style="stop-color:#CCD6DE" /><stop offset="0.85" style="stop-color:#D8DBE2" /><stop offset="0.88" style="stop-color:#EDE3E9" /><stop offset="0.9" style="stop-color:#FFEBEF" /></radialGradient><circle class="st2" cx="46.8" cy="107" r="25.2" /><radialGradient id="SVGID_3_" cx="215.61" cy="-450.1783" r="153.78" gradientTransform="matrix(1 0 0 -0.7 -106 -229.6518)" gradientUnits="userSpaceOnUse"><stop offset="0" style="stop-color:#FEFFFF" /><stop offset="0.4" style="stop-color:#FEFFFF" /><stop offset="0.51" style="stop-color:#F9FCFC" /><stop offset="0.62" style="stop-color:#EDF3F5" /><stop offset="0.7" style="stop-color:#DEE9EC" /><stop offset="0.72" style="stop-color:#D8E4E8" /><stop offset="0.76" style="stop-color:#CCD8DF" /><stop offset="0.8" style="stop-color:#C8D5DD" /><stop offset="0.83" style="stop-color:#CCD6DE" /><stop offset="0.85" style="stop-color:#D8DBE2" /><stop offset="0.88" style="stop-color:#EDE3E9" /><stop offset="0.9" style="stop-color:#FFEBEF" /></radialGradient><ellipse class="st3" cx="108.1" cy="128.6" rx="72" ry="54" /><radialGradient id="SVGID_4_" cx="143.2603" cy="-119.4011" r="12.85" gradientTransform="matrix(1.07 0 0 -1.55 -78.6392 -57.5577)" gradientUnits="userSpaceOnUse"><stop offset="0" style="stop-color:#FF6600" /><stop offset="0.5" style="stop-color:#FF4500" /><stop offset="0.7" style="stop-color:#FC4301" /><stop offset="0.82" style="stop-color:#F43F07" /><stop offset="0.92" style="stop-color:#E53812" /><stop offset="1" style="stop-color:#D4301F" /></radialGradient><path class="st4" d="M86.8,123.5c-0.4,9.1-6.5,12.4-13.6,12.4s-12.5-4.9-12-14s6.5-15,13.6-15S87.2,114.4,86.8,123.5L86.8,123.5z" /><radialGradient id="SVGID_5_" cx="1312.0122" cy="-119.4011" r="12.85" gradientTransform="matrix(-1.07 0 0 -1.55 1545.4216 -57.5577)" gradientUnits="userSpaceOnUse"><stop offset="0" style="stop-color:#FF6600" /><stop offset="0.5" style="stop-color:#FF4500" /><stop offset="0.7" style="stop-color:#FC4301" /><stop offset="0.82" style="stop-color:#F43F07" /><stop offset="0.92" style="stop-color:#E53812" /><stop offset="1" style="stop-color:#D4301F" /></radialGradient><path class="st5" d="M129.4,123.5c0.4,9.1,6.5,12.4,13.6,12.4s12.5-4.9,12-14c-0.4-9.1-6.5-15-13.6-15S128.9,114.4,129.4,123.5    L129.4,123.5z" /><ellipse class="st6" cx="79.6" cy="116.4" rx="2.8" ry="3.1" /><ellipse class="st6" cx="146.2" cy="116.4" rx="2.8" ry="3.1" /><radialGradient id="SVGID_6_" cx="213.93" cy="-565.7939" r="45.3" gradientTransform="matrix(1 0 0 -0.66 -106 -205.8304)" gradientUnits="userSpaceOnUse"><stop offset="0" style="stop-color:#172E35" /><stop offset="0.29" style="stop-color:#0E1C21" /><stop offset="0.73" style="stop-color:#030708" /><stop offset="1" style="stop-color:#000000" /></radialGradient><path class="st7" d="M108.1,142.9c-8.8,0-17.2,0.4-24.9,1.2c-1.3,0.1-2.2,1.5-1.7,2.7c4.3,10.4,14.6,17.7,26.6,17.7    s22.2-7.3,26.6-17.7c0.5-1.2-0.3-2.6-1.6-2.7C125.2,143.4,116.8,142.9,108.1,142.9L108.1,142.9z" /><radialGradient id="SVGID_7_" cx="253.88" cy="-236.0849" r="39.77" gradientTransform="matrix(1 0 0 -0.98 -106 -198.542)" gradientUnits="userSpaceOnUse"><stop offset="0" style="stop-color:#FEFFFF" /><stop offset="0.4" style="stop-color:#FEFFFF" /><stop offset="0.51" style="stop-color:#F9FCFC" /><stop offset="0.62" style="stop-color:#EDF3F5" /><stop offset="0.7" style="stop-color:#DEE9EC" /><stop offset="0.72" style="stop-color:#D8E4E8" /><stop offset="0.76" style="stop-color:#CCD8DF" /><stop offset="0.8" style="stop-color:#C8D5DD" /><stop offset="0.83" style="stop-color:#CCD6DE" /><stop offset="0.85" style="stop-color:#D8DBE2" /><stop offset="0.88" style="stop-color:#EDE3E9" /><stop offset="0.9" style="stop-color:#FFEBEF" /></radialGradient><circle class="st8" cx="147.5" cy="49.4" r="17.9" /><radialGradient id="SVGID_8_" cx="237.31" cy="-268.1527" r="32.6" gradientTransform="matrix(1 0 0 -1 -106 -195.0727)" gradientUnits="userSpaceOnUse"><stop offset="0.48" style="stop-color:#7A9299" /><stop offset="0.67" style="stop-color:#172E35" /><stop offset="0.75" style="stop-color:#000000" /><stop offset="0.82" style="stop-color:#172E35" /></radialGradient><path class="st9" d="M107.8,76.9c-2.1,0-3.9-0.9-3.9-2.3c0-16,13-29,29-29c2.1,0,3.9,1.7,3.9,3.9s-1.7,3.9-3.9,3.9    c-11.7,0-21.3,9.5-21.3,21.3C111.7,76,109.9,76.9,107.8,76.9L107.8,76.9z" /><path class="st10" d="M62.8,122.7c0.4-8.6,6.1-14.2,12.7-14.2c6.3,0,11.1,6.4,11.3,14.3c0.2-8.9-5.1-16-12.1-16    s-13.1,6.1-13.6,15.2c-0.4,9.2,5,13.8,12,13.8c0.2,0,0.3,0,0.5,0C67.3,135.7,62.4,131.1,62.8,122.7L62.8,122.7z" /><path class="st10" d="M153.3,122.7c-0.4-8.6-6.1-14.2-12.7-14.2c-6.3,0-11.1,6.4-11.3,14.3c-0.2-8.9,5.1-16,12.1-16    c7.1,0,13.1,6.1,13.6,15.2s-5,13.8-12,13.8c-0.2,0-0.4,0-0.5,0C148.8,135.7,153.7,131.1,153.3,122.7L153.3,122.7z" /></g></g></svg>
