<svg xmlns="http://www.w3.org/2000/svg" viewBox="-221.25 -221.25 742.5 742.5"><path d="M.06 149.98C.06 67.136 67.192 0 150.02 0 232.846 0 300 67.132 300 149.98c0 82.793-67.15 149.96-149.98 149.96C67.194 299.94.06 232.775.06 149.98zm149.93 99.95c55.206 0 99.96-44.763 99.96-99.955 0-55.216-44.753-99.978-99.96-99.978-55.202 0-99.955 44.758-99.955 99.978 0 55.192 44.758 99.955 99.955 99.955zm49.98-99.96c0 27.601-22.374 49.98-49.98 49.98-27.606 0-49.975-22.379-49.975-49.98 0-27.601 22.374-49.98 49.98-49.98 27.606 0 49.975 22.379 49.975 49.98z" fill="#CC0000" /></svg>
