<svg xmlns="http://www.w3.org/2000/svg" viewBox="-160 -160 576 576"><path d="m199.1 5.625e-6c31.425 0 56.9 25.475 56.9 56.9v142.2c0 31.425-25.475 56.9-56.9 56.9h-142.2c-31.425 0-56.9-25.475-56.9-56.9v-142.2c0-31.425 25.475-56.9 56.9-56.9z" fill="#fcfcfc" /><path d="m199.1 0c31.425 0 56.9 25.475 56.9 56.9v142.2c0 31.425-25.475 56.9-56.9 56.9h-142.2c-31.425 0-56.9-25.475-56.9-56.9v-142.2c0-31.425 25.475-56.9 56.9-56.9zm-64 132.98h-3.4c-3.025 0-5.5 2.45-5.475 5.475v37.625c0 3.025 2.45 5.5 5.475 5.5s5.5-2.45 5.5-5.5v-24.7l9.25 13.05c1.925 2.7 5.925 2.7 7.875 0l9.25-13.05v24.7c0 3.025 2.45 5.5 5.5 5.5 3.025 0 5.5-2.45 5.475-5.5v-37.625c0-3.025-2.45-5.5-5.475-5.475h-3.4c-1.3 0-2.55 0.625-3.3 1.7l-11.975 18-12-18c-0.75-1.075-1.975-1.7-3.3-1.7zm85.05 0c-3.025 0-5.5 2.45-5.5 5.475v22.975c0 7.225-4.075 10.925-10.775 10.9-6.7 0-10.775-3.825-10.75-11.225v-22.65c0-3.025-2.45-5.5-5.5-5.475-3.025 0-5.5 2.45-5.475 5.475v22.9c0 13.4 8.2 20.225 21.6 20.225s21.9-6.75 21.875-20.55v-22.575c0-3.025-2.45-5.5-5.475-5.475zm-154.22 0h-32.075c-3.025 0-5.5 2.45-5.5 5.475s2.45 5.5 5.5 5.5h10.55v32.075c0 3.025 2.45 5.5 5.475 5.5s5.5-2.45 5.5-5.5v-32.075h10.55c3.025 0 5.5-2.45 5.5-5.5 0-3.025-2.45-5.5-5.5-5.475zm47.475 0h-29.725c-3.025 0-5.5 2.45-5.5 5.475v37.575c0 3.025 2.45 5.5 5.5 5.5h29.725c3.025 0 5.5-2.45 5.475-5.5 0-3.025-2.45-5.5-5.475-5.5h-24.25v-7.8h21.1c3.025 0 5.5-2.45 5.5-5.475s-2.45-5.5-5.5-5.5h-21.1v-7.8h24.25c3.025 0 5.5-2.45 5.475-5.5 0-3.025-2.45-5.5-5.475-5.475zm-53.625-57.35-1.025 0.025c-4.275 0.275-7.2 2.125-8.85 4.625-1.925-2.875-5.525-4.9-10.95-4.6l-0.125 0.175c-0.625 1-2.975 5.475 0.825 10.35 0.775 0.825 2.675 3.15 1.9 6.125l-11.025 17.825c-0.9 1.45-0.5 3.325 0.875 4.3 2.85 2 8.575 4.75 18.5 4.75 9.9 0 15.625-2.75 18.475-4.75l0.375-0.325c1.075-1.025 1.3-2.675 0.5-3.975l-11-17.825 0.075 0.325-0.125-0.5c-0.6-2.675 0.9-4.8 1.725-5.75l0.2-0.2c3.825-4.875 1.45-9.325 0.825-10.35l-0.1-0.175zm35.7 8.35c-3.775-7.5-8.675-8.775-11.125-6.825-1.875 1.5-6.2 7.425-6.5 7.825-4.775 6.775-4.5 8.425 1.625 12.275 3.45 2.175 6.225-0.625 7.425-1.45-0.575 3.575-2.325 9.2-4.95 13.15-1.425-1.075-2.475-1.9-3.125-2.5-0.825-0.75-2.075-0.7-2.875 0.075-0.375 0.375-0.575 0.875-0.55 1.425 0.025 0.525 0.25 1.025 0.625 1.375 6.375 5.825 14.75 9.125 23.675 9.15 8.95 0 17.375-3.3 23.75-9.15 0.825-0.75 0.85-2 0.1-2.8-0.8-0.8-2.05-0.825-2.875-0.075-0.5 0.45-1 0.875-1.525 1.3l-2.8-6.25c-0.45-1.075-0.95-2.425-1.5-4.05 0.275-0.675 0.85-1.325 1.675-2.175 0.6-0.6 1.1-1.2 1.475-1.775 1.85-2.925 0.8-4.65 0.225-5.8-1.325-2.7-3.4-1.825-4.9-0.225-1.85 1.95-3.65 2.8-6.55 3.45-2.425 0.55-4.3 0.275-5.85-0.7-2.15-1.325-5.45-6.25-5.45-6.25zm69.325-7.625c-8 7.6-0.325 24.125-14.875 31.15-1.6 0.775-2.925-1.775-5.075-1.775-6.075 0.05-17.675 5.4-18.125 8.1-0.375 2.225 4.575 4 19.175 4.025 12.7 0 16.8-19.325 21.25-19.35 4.45 0 2.375 17.525 1.9 19.35h4.65c-0.4-1.825-0.7-7.325-0.675-15.1 0-7.775 1.4-9.5 2.525-15.375 0.975-5.1-6.575-9.525-10.75-11.025zm45.6 0.625h-13.025c-8.425 0-15.425 6.525-16 14.925l-0.95 13.475c-0.45 6.4 4.625 11.825 11.025 11.85h24.85c6.425 0 11.475-5.425 11.05-11.85l-0.95-13.475c-0.6-8.4-7.575-14.925-16-14.925zm-110.65 31c3.925 0 6.925 1.925 8.025 5.5-2.675 0.7-5.35 1.05-8.075 1.025-4.1 0-5.55-0.375-8.175-1.075 1.05-3.15 4.525-5.45 8.225-5.45zm98.225-19.825v0.375c0 3.25 2.65 5.925 5.9 5.925s5.925-2.65 5.925-5.925v-0.375c0-1.45 5.25-1.45 5.25 0v0.375c0 6.15-5 11.15-11.175 11.15-6.15 0-11.15-5-11.15-11.15v-0.375c0-1.45 5.225-1.45 5.25 0z" fill="#fb7701" /></svg>
