<svg xmlns="http://www.w3.org/2000/svg" viewBox="-357.6 -331.4 1112.8 1112.8"><path d="M154.6,177v-17.5c-6.1-0.9-12.2-1.3-18.4-1.3C61.1,158.1,0,219.2,0,294.4c0,44.5,21.7,86.1,58.2,111.6c-23.5-25.2-36.6-58.3-36.6-92.8C21.6,239.1,81,178.7,154.6,177z" fill="#25F4EE" /><path d="M157.9,375.4c33.4-0.1,60.8-26.5,62.1-59.9l0.1-296.7h54.2c-1.2-6.2-1.7-12.5-1.7-18.8h-74l-0.2,296.7c-1.2,34.3-30,61.1-64.3,59.9c-9.3-0.3-18.5-2.8-26.7-7.1C119,365.7,137.8,375.4,157.9,375.4z" fill="#25F4EE" /><path d="M375.6,119.5V103c-19.9,0-39.4-5.8-56.1-16.7C334.1,103.2,353.8,114.8,375.6,119.5z" fill="#25F4EE" /><path d="M319.5,86.3c-16.3-18.7-25.3-42.7-25.3-67.5h-19.8C279.5,46.5,295.8,70.9,319.5,86.3z" fill="#FE2C55" /><path d="M136.3,232.1c-34.4,0-62.2,27.8-62.2,62.2c0,23.2,12.8,44.4,33.4,55.1c-20.2-27.7-14.1-66.4,13.5-86.6c15.9-11.6,36.5-15,55.3-9v-75.6c-6.1-0.9-12.2-1.3-18.4-1.3c-1.1,0-2.1,0.1-3.2,0.1v58C148.7,233.1,142.5,232.1,136.3,232.1z" fill="#FE2C55" /><path d="M375.6,119.5V177c-37,0-73-11.5-103-33.1v150.5c0,75.2-61.1,136.3-136.3,136.3c-28,0-55.2-8.6-78.1-24.7c25.7,27.7,61.8,43.5,99.7,43.5c75.1,0,136.3-61.1,136.3-136.3V162.7c30,21.6,66,33.2,103,33.1v-74C389.9,121.8,382.7,121,375.6,119.5z" fill="#FE2C55" /><path d="M272.6,294.4V143.9c30,21.6,66,33.2,103,33.1v-57.5c-21.8-4.7-41.5-16.3-56.1-33.2c-23.7-15.4-40-39.8-45.2-67.5h-54.2L220,315.5c-1.2,34.3-30,61.1-64.3,59.9c-19.2-0.7-37.1-10.2-48.3-25.9c-30.4-15.9-42.2-53.5-26.3-84c10.7-20.5,32-33.4,55.1-33.4c6.2,0,12.4,1,18.4,2.9v-58C81,178.8,21.6,239.2,21.6,313.3c0,34.5,13.1,67.6,36.6,92.8c22.9,16.1,50.1,24.7,78.1,24.7C211.4,430.7,272.6,369.5,272.6,294.4z" fill="#000000" /></svg>
