<svg xmlns="http://www.w3.org/2000/svg" fill="none" viewBox="-53.05 -53.05 189.1 189.1"><g clip-path="url(#clip0_539_211)"><path d="M82.9992 -0.00244141H-0.000976562V82.9978H82.9992V-0.00244141Z" fill="#F52728" /><path d="M-35.0251 14.4705L-5.44727 115.021L109.585 81.183L80.0076 -19.3672L-35.0251 14.4705Z" fill="#FB0000" /><path d="M41.0393 30.319L48.4324 34.9136L30.211 68.9912C29.3678 70.5031 27.3182 71.017 25.7818 70.09L21.7839 67.6118C20.2763 66.7563 19.7708 64.7173 20.6904 63.1832L41.0393 30.319ZM68.2305 28.8232L64.9163 34.4127C64.243 35.5421 62.8544 35.8864 61.6452 35.2316L60.3992 34.4052C59.4979 33.9311 58.8698 32.7925 59.1367 32.1133C59.7457 31.4374 59.1404 30.0238 57.4236 29.056C54.9505 27.4954 52.3921 28.0442 51.6702 29.3571C51.3485 29.7781 50.3813 31.5012 50.3813 31.5012L42.8416 27.0244L43.5901 25.8016C43.5901 25.8016 43.7683 25.493 44.1189 24.7973C45.5291 22.4469 43.0423 20.8069 43.0423 20.8069C36.4215 16.8805 28.9937 18.812 28.9937 18.812L28.4499 16.9459C42.4705 9.38419 49.7408 14.541 52.2927 16.0792C54.6412 17.4948 57.1039 18.974 57.7114 19.3387C59.0341 20.1464 58.726 23.4329 60.7043 24.7684C61.6242 25.3244 62.6854 25.4036 63.4254 25.2297C64.0658 24.2897 65.4307 24.2147 66.2633 24.7783L67.4157 25.5424C68.5407 26.2177 68.8805 27.609 68.2305 28.8232Z" fill="white" /></g><defs><clipPath id="clip0_539_211"><rect width="83" height="83" fill="white" /></clipPath></defs></svg>
