<svg xmlns="http://www.w3.org/2000/svg" viewBox="-20.3 -34.9 116.9 116.9" fill="#333366"><polygon fill="#FFFFFF" points="66.3,47.2 76.3,0 10,0 0,47.2" /><path d="M49.3,9.9c7.7,1.8,7.9,3.7,7.9,3.7c5,0,6.3,0,7.2,0.9c2.9,2.7-2,9.3-2,9.3C61.8,24.2,6.6,45.8,6.6,45.8h58.1L74,1.9H11.6C11.6,1.9,48.4,9.7,49.3,9.9" /><path d="M55,16.3c-0.8,0.4-3.2,0.8-4,0.9c-0.8,0.1-1.2,0.1-1.2,0.3c0,0.3,1.1,0.2,1.5,0.2c1.8,0,8.9-0.5,10.6-0.2c1.3,0.2-0.2,2.8-0.6,4.4c-0.1,0.6,0.3,0.3,0.5,0c0.5-0.8,1.9-3.4,2-4.4c0.2-2-1.2-2.3-3.6-2.3h-3.7c-0.3,0-0.4,0.1-0.5,0.3C55.7,15.8,55.2,16.1,55,16.3" /><path d="M32,31.1L2.3,45.8l7.2-33.7h0h30c0.5,0,16.1,0,16.4,3.1h-27l4.2,12.8c4.8-2.3,16.6-7.1,23.7-7.4c3-0.1,4.2,0.4,3.6,0.8c-0.4,0.2-3.3,0.6-5.6,1.2c-4,1-4.2,1-8.4,2.4C41.7,26.6,37.8,28.4,32,31.1" /></svg>
