<svg xmlns="http://www.w3.org/2000/svg" viewBox="-21.88 -21.88 78.75 78.75"><g fill="none" fill-rule="evenodd"><path fill="#039" d="M0 0h35v35H0z" /><path d="M13.998 27.281c.73 0 1.232.272 1.402.757.06.178.077.314.077.782l-.026 1.462v.077c0 .467.077.646.408.893l-.603.697c-.264-.11-.502-.306-.612-.527-.162.153-.179.17-.264.23-.212.152-.518.237-.875.237-.97 0-1.497-.493-1.497-1.36 0-1.02.706-1.496 2.092-1.496.085 0 .136 0 .255.008v-.178c0-.485-.094-.647-.51-.647-.366 0-.791.179-1.259.494l-.484-.817c.28-.178.4-.238.705-.357.425-.178.791-.255 1.19-.255zm13.202.009c.502 0 .978.17 1.259.459.4.408.578.995.578 1.904v.264H26.52v.034c0 .671.332 1.054.918 1.054.392 0 .757-.145 1.106-.434l.442.68c-.502.409-1.029.604-1.641.604-1.25 0-2.057-.884-2.057-2.253 0-.782.161-1.3.544-1.726.357-.4.79-.586 1.368-.586zm3.724-1.854c.043.238.06.519.06 1.131v3.675c.003.495.018.584.076.686.043.077.136.12.23.12.042 0 .068 0 .127-.017l.196.68a1.902 1.902 0 01-.68.119c-.485 0-.876-.23-1.012-.595-.077-.201-.098-.332-.102-.82v-3.406c0-.57-.017-.918-.06-1.31l1.165-.263zm-25.521.255c.586 0 1.173.188 1.496.468l-.536.808a1.557 1.557 0 00-.943-.332c-.4 0-.79.196-1.003.51-.23.34-.332.833-.332 1.522 0 .808.068 1.258.246 1.581.239.434.63.664 1.14.664a1.53 1.53 0 001.011-.383l.545.748c-.468.383-.97.553-1.641.553-.816 0-1.446-.264-1.93-.816-.476-.536-.714-1.25-.714-2.117 0-.74.127-1.327.4-1.837a2.539 2.539 0 012.26-1.369zm16.527 1.573c.102.179.161.366.161.544.264-.187.315-.22.502-.323.23-.119.527-.187.782-.187.484 0 .91.255 1.046.63.059.16.084.348.084.62v3.18h-1.122v-2.831c0-.494-.085-.638-.382-.638-.23 0-.527.153-.79.391v3.078h-1.14v-3.154c0-.375-.051-.732-.153-1.02l1.012-.29zM8.65 25.428c.051.238.077.646.077 1.063v.867c0 .136-.017.314-.017.365.297-.28.79-.467 1.232-.467.536 0 .995.255 1.131.62.085.247.11.315.11.808v3.044H10.07v-2.925c0-.434-.119-.595-.442-.595-.28 0-.646.17-.901.4v3.12H7.57v-5.033c0-.408-.033-.816-.085-.995l1.165-.272zm8.748 1.836c.102.179.162.366.162.544.263-.187.314-.22.501-.323.23-.119.527-.187.783-.187.484 0 .91.255 1.045.63.06.16.085.348.085.62v3.18h-1.122v-2.831c0-.494-.085-.638-.383-.638-.23 0-.527.153-.79.391v3.078h-1.14v-3.154c0-.375-.05-.732-.152-1.02l1.011-.29zm-3.06 2.56h-.051c-.791 0-1.063.144-1.063.662 0 .34.213.57.502.57.212 0 .425-.11.595-.298l.017-.935zm12.88-1.701c-.434 0-.68.34-.68.944v.017h1.317v-.051c0-.323-.034-.493-.136-.655-.11-.17-.272-.255-.502-.255zm-11.104-8.89c.731 0 1.233.271 1.403.756.06.178.076.314.076.782l-.025 1.462v.077c0 .467.076.646.408.892l-.604.698c-.263-.111-.501-.306-.612-.528-.161.153-.178.17-.263.23-.213.153-.519.238-.876.238-.97 0-1.496-.493-1.496-1.36 0-1.02.705-1.497 2.091-1.497.085 0 .136 0 .255.009v-.179c0-.484-.093-.646-.51-.646-.366 0-.79.179-1.258.493l-.485-.816c.28-.178.4-.238.706-.357.425-.178.79-.255 1.19-.255zm-4.353.008c.502 0 .978.17 1.259.459.4.408.578.994.578 1.904v.264H11.08v.034c0 .671.332 1.054.918 1.054.391 0 .757-.145 1.106-.434l.442.68c-.502.408-1.03.604-1.641.604-1.25 0-2.058-.884-2.058-2.253 0-.782.162-1.3.545-1.726.357-.4.79-.586 1.368-.586zm15.788 0c.501 0 .977.17 1.258.459.4.408.578.994.578 1.904v.264h-2.517v.034c0 .671.332 1.054.919 1.054.39 0 .756-.145 1.105-.434l.442.68c-.502.408-1.029.604-1.641.604-1.25 0-2.057-.884-2.057-2.253 0-.782.161-1.3.544-1.726.357-.4.79-.586 1.369-.586zm-7.677-1.233c-.043.4-.068.867-.068 1.31h1.02l-.29.756h-.73v2.219c0 .552.102.697.493.697.102 0 .204-.026.408-.085l.144.68a2.39 2.39 0 01-.926.196c-.578 0-1.046-.256-1.173-.638-.06-.164-.074-.25-.076-.536l-.001-2.533h-.434v-.74h.434c0-.425 0-.714.043-1.037l1.156-.29zM3.83 17.77l.51 2.33c.247 1.105.315 1.946.315 1.946.025-.23.127-1.071.306-1.887l.527-2.39h1.3l.545 2.645c.11.552.255 1.564.255 1.564.017-.187.22-1.47.323-1.964l.484-2.244h1.25l-1.428 5.96H6.916l-.527-2.406c-.204-.919-.272-1.667-.28-1.718 0 0-.12.833-.29 1.7l-.484 2.423H3.983l-1.411-5.96H3.83zm18.473-.391c.051.238.077.646.077 1.062v.868c0 .136-.017.314-.017.365.297-.28.79-.467 1.232-.467.536 0 .995.255 1.131.62.085.247.11.315.11.808v3.043h-1.113v-2.924c0-.434-.12-.595-.442-.595-.28 0-.646.17-.901.4v3.12h-1.157v-5.033c0-.409-.034-.817-.085-.995l1.165-.272zm9.98 1.845c.17 0 .247.017.426.093l-.315 1.003a.643.643 0 00-.331-.085c-.255 0-.485.12-.697.366v3.077h-1.14v-2.907c0-.587-.068-1.029-.161-1.275l1.02-.272c.102.178.162.374.179.62a1.97 1.97 0 01.646-.552c.093-.043.246-.068.374-.068zm-15.829 2.55h-.05c-.792 0-1.064.145-1.064.663 0 .34.213.57.502.57.213 0 .425-.11.595-.298l.017-.935zm-4.676-1.7c-.433 0-.68.34-.68.943v.017h1.318v-.05c0-.324-.034-.494-.136-.655-.11-.17-.272-.255-.502-.255zm15.788 0c-.434 0-.68.34-.68.943v.017h1.317v-.05c0-.324-.034-.494-.136-.655-.110-.17-.272-.255-.501-.255zM13.598 11.19c.502 0 .978.17 1.258.46.4.408.579.994.579 1.904v.263h-2.517v.035c0 .671.332 1.054.918 1.054.391 0 .757-.145 1.105-.434l.443.68c-.502.408-1.03.604-1.641.604-1.25 0-2.058-.884-2.058-2.253 0-.782.162-1.3.544-1.726.357-.4.791-.587 1.37-.587zm-6.801-1.47l-.196.986h-1.41v4.922H3.982v-4.922H2.538V9.72h4.259zm1.556-.391c.05.238.076.646.076 1.062v.867c0 .137-.017.315-.017.366.298-.28.79-.468 1.233-.468.536 0 .995.256 1.13.621.086.247.111.315.111.808v3.043H9.773v-2.924c0-.434-.12-.595-.443-.595-.28 0-.646.17-.9.4v3.12H7.272v-5.034c0-.408-.034-.816-.085-.994l1.165-.272zm5.262 2.695c-.433 0-.68.34-.68.943v.017h1.318v-.05c0-.324-.034-.494-.136-.655-.11-.17-.272-.255-.502-.255z" fill="#FFF" /></g></svg>
