<svg xmlns="http://www.w3.org/2000/svg" viewBox="-103.25 -103.25 346.5 346.5"><path d="M70.1,56.3C70.1,56.3,70.2,56.3,70.1,56.3c21.1,16.1,57,55.6,46.1,66.7c-12.4,10.8-28.5,17.3-46.1,17.3s-33.9-6.5-46.1-17.3c-11-11.2,25-50.7,45.9-66.6C69.9,56.3,70.1,56.3,70.1,56.3L70.1,56.3z" fill="#127b0f" /><path d="M106.6,10.3C95.9,3.8,84.2,0,70.1,0S44.2,3.8,33.5,10.3c-0.2,0-0.2,0.2-0.2,0.3s0.2,0.2,0.3,0.2c13.6-3,34.2,8.7,36.2,10h0.3c1.9-1.2,22.5-12.9,36.2-10c0.2,0,0.3,0,0.3-0.2S106.8,10.3,106.6,10.3L106.6,10.3z" fill="#127b0f" /><path d="M21,20.1c-0.2,0-0.2,0.2-0.3,0.2C7.9,33,0,50.7,0,70.1c0,15.9,5.4,30.7,14.3,42.5c0,0.2,0.2,0.2,0.3,0.2c0.2,0,0.2-0.2,0-0.3C9.3,95.7,36.7,55.7,50.8,39l0.2-0.2c0-0.2,0-0.2-0.2-0.2C29.4,17.3,22.2,19.6,21,20.1L21,20.1z" fill="#127b0f" /><path d="M89.3,38.4l-0.2,0.2c0,0,0,0.2,0.2,0.2c14.2,16.8,41.4,56.8,36.2,73.4v0.3c0.2,0,0.3,0,0.3-0.2c8.9-11.7,14.3-26.6,14.3-42.5c0-19.4-7.9-37-20.8-49.8c-0.2-0.2-0.2-0.2-0.3-0.2C117.9,19.6,110.8,17.3,89.3,38.4L89.3,38.4z" fill="#127b0f" /></svg>
