<svg xmlns="http://www.w3.org/2000/svg" xmlns:xlink="http://www.w3.org/1999/xlink" x="0px" y="0px" style="enable-background:new 0 0 458 154.5;" viewBox="-81 -232.75 620 620">
<g fill="#FFFFFF">
  <path d="M51.2,78.1l28.8-38.6h-12c-5.4,0-8.8,1.9-11.7,5.7L41.1,65.6L26.4,45.2c-2.8-3.8-6.3-5.7-11.7-5.7h-12l28.4,38.6L0,120.1   h11.4c5.4,0,8.8-1.9,11.7-5.7l18-23.9l42.2,58.3c2.7,3.8,6.3,5.7,11.7,5.7h12.3L51.2,78.1z M281.4,120.1h16.3V39.5h-16.3V120.1z    M152.3,120.1h16.3V39.5h-16.3V120.1z M399.1,148.5l58.9-109h-8.8c-5.4,0-9.5,1.6-11.7,5.7l-23.2,43.1l-20.1-43.1   c-2.1-4.3-6.3-5.7-11.7-5.7H374l31,65.7l-27,49.3h8.8C392.3,154.5,396.7,152.8,399.1,148.5 M188,39.5v80.6h16.3V64.8   c5.1-7.1,12.3-11.5,21.3-11.5c12,0,20.2,7.6,20.2,22.8v36.3c0,4.6,3.2,7.7,7.6,7.7h8.7V73.2c0-20.9-13.3-35.4-32.5-35.4   c-10.3,0-18.8,3.6-25.3,9.6v-7.9H188z M327.9,91.5c0,17.5,10.7,30,30,30c4.7,0,8.7-0.6,11.9-1.6l-3.3-14.2   c-2.1,0.5-4.6,0.8-7.4,0.8c-7.9,0-14.9-4.3-14.9-15.3V54h22.8l-6.6-14.5h-16.1V7.1l-16.3,7.1v25.3h-17.2V54h17.2L327.9,91.5   L327.9,91.5z M102.2,54v66h16.3V54h20.9V39.5h-20.9v-6c0-13.7,8.2-18.3,16.3-18.3c2.1,0,3.9,0.3,5.5,0.8l3.3-14.4   c-2.1-0.8-5.4-1.6-10.1-1.6c-20.2,0-31.3,15-31.3,33.2v6.3h-8.5L83.4,54H102.2z">
  </path>
 </g>
</svg>
