<svg
  xmlns="http://www.w3.org/2000/svg"
  xmlns:xlink="http://www.w3.org/1999/xlink"
x="0px"
  y="0px"
  style="enable-background: new -61.9 -60.75 269 269"
  viewBox="-92.78 -91.88 330.75 330.75"
>
  <style type="text/css">
    .st0 {
      fill: #ffd400;
    }
    .st1 {
      fill: #ffffff;
    }
  </style>
  <g>
    <path d="M0,0h145.2v147H0V0z"></path>
    <g transform="translate(10.26 12.605)">
      <path class="st0" d="M18.8,87.8h89.6v9.8H18.8V87.8z"></path>
      <path
        class="st1"
        d="M46.3,71.9c-2.8,8.1-6.5,10.7-14.1,10.7c-2.6,0-5.1-0.5-7.5-1.4v-9.5c2.1,0.9,4.3,1.3,6.6,1.4    c3.3,0,4.8-1.7,4.8-3.9c-0.1-1.2-0.5-2.4-1-3.5C34.4,63.9,19,24.1,19,24.1h11.4l11.1,33.4h0.1l9.8-33.4h10.9L46.3,71.9z     M65.8,24.1h10.5v3.7h0.2c3.6-3.2,8.2-4.9,12.9-4.8c11,0,19.2,10.3,19.2,23c0,11.7-6.8,23-20.4,23c-5.5,0-9.9-2-11.8-4.4V82H65.8    V24.1z M97.6,46.1c-0.1-6.3-2.9-13.3-10.8-13.3S76,39.7,75.9,46.1c0.1,6.3,2.9,13.3,10.8,13.3C94.7,59.3,97.5,52.4,97.6,46.1z"
      ></path>
    </g>
  </g>
</svg>
